<svg width="1280" height="720" xmlns="http://www.w3.org/2000/svg" xmlns:xlink="http://www.w3.org/1999/xlink" overflow="hidden"><defs><filter id="fx0" x="-10%" y="-10%" width="120%" height="120%" filterUnits="userSpaceOnUse" primitiveUnits="userSpaceOnUse"><feComponentTransfer color-interpolation-filters="sRGB"><feFuncR type="discrete" tableValues="0 0"/><feFuncG type="discrete" tableValues="0 0"/><feFuncB type="discrete" tableValues="0 0"/><feFuncA type="linear" slope="0.4" intercept="0"/></feComponentTransfer><feGaussianBlur stdDeviation="0.572011 0.572011"/></filter><filter id="fx1" x="-10%" y="-10%" width="120%" height="120%" filterUnits="userSpaceOnUse" primitiveUnits="userSpaceOnUse"><feComponentTransfer color-interpolation-filters="sRGB"><feFuncR type="discrete" tableValues="0 0"/><feFuncG type="discrete" tableValues="0 0"/><feFuncB type="discrete" tableValues="0 0"/><feFuncA type="linear" slope="0.4" intercept="0"/></feComponentTransfer><feGaussianBlur stdDeviation="0.572011 0.572011"/></filter><filter id="fx2" x="-10%" y="-10%" width="120%" height="120%" filterUnits="userSpaceOnUse" primitiveUnits="userSpaceOnUse"><feComponentTransfer color-interpolation-filters="sRGB"><feFuncR type="discrete" tableValues="0 0"/><feFuncG type="discrete" tableValues="0 0"/><feFuncB type="discrete" tableValues="0 0"/><feFuncA type="linear" slope="0.4" intercept="0"/></feComponentTransfer><feGaussianBlur stdDeviation="0.572011 0.572011"/></filter><filter id="fx3" x="-10%" y="-10%" width="120%" height="120%" filterUnits="userSpaceOnUse" primitiveUnits="userSpaceOnUse"><feComponentTransfer color-interpolation-filters="sRGB"><feFuncR type="discrete" tableValues="0 0"/><feFuncG type="discrete" tableValues="0 0"/><feFuncB type="discrete" tableValues="0 0"/><feFuncA type="linear" slope="0.4" intercept="0"/></feComponentTransfer><feGaussianBlur stdDeviation="0.572011 0.572011"/></filter><filter id="fx4" x="-10%" y="-10%" width="120%" height="120%" filterUnits="userSpaceOnUse" primitiveUnits="userSpaceOnUse"><feComponentTransfer color-interpolation-filters="sRGB"><feFuncR type="discrete" tableValues="0 0"/><feFuncG type="discrete" tableValues="0 0"/><feFuncB type="discrete" tableValues="0 0"/><feFuncA type="linear" slope="0.4" intercept="0"/></feComponentTransfer><feGaussianBlur stdDeviation="0.572011 0.572011"/></filter><clipPath id="clip5"><rect x="0" y="0" width="1280" height="720"/></clipPath><clipPath id="clip6"><rect x="18" y="15" width="141" height="18"/></clipPath><clipPath id="clip7"><rect x="0" y="0" width="182" height="56"/></clipPath><clipPath id="clip8"><rect x="18" y="16" width="56" height="17"/></clipPath><clipPath id="clip9"><rect x="0" y="0" width="91" height="56"/></clipPath><clipPath id="clip10"><rect x="18" y="15" width="105" height="22"/></clipPath><clipPath id="clip11"><rect x="0" y="0" width="145" height="56"/></clipPath><clipPath id="clip12"><rect x="17" y="15" width="88" height="22"/></clipPath><clipPath id="clip13"><rect x="0" y="0" width="122" height="56"/></clipPath><clipPath id="clip14"><rect x="18" y="16" width="61" height="18"/></clipPath><clipPath id="clip15"><rect x="0" y="0" width="97" height="56"/></clipPath></defs><g clip-path="url(#clip5)"><rect x="0" y="0" width="1280" height="720" fill="#FFFFFF"/><path d="M291.188 189.805C278.725 129.152 342.894 73.295 434.513 65.0447 471.638 61.7016 509.384 66.6991 541.711 79.2377 575.965 36.4911 656.01 20.2452 720.497 42.9515 731.773 46.922 742.122 51.9543 751.222 57.8916 777.9 22.458 842.882 8.06214 896.363 25.7377 911.165 30.6298 924.078 37.7051 934.108 46.4198 977.108 12.9109 1053.09 8.77168 1103.82 37.1747 1125.14 49.1124 1139.51 65.5777 1144.47 83.7476 1214.92 96.4747 1256.49 144.683 1237.3 191.425 1235.69 195.354 1233.67 199.204 1231.25 202.947 1287.75 251.651 1273.92 321.457 1200.35 358.865 1177.45 370.509 1150.4 378.048 1121.82 380.754 1121.18 433.152 1056.46 475.288 977.25 474.868 950.788 474.727 924.899 469.746 902.451 460.475 875.661 519.219 782.214 552.422 693.732 534.636 656.65 527.182 624.611 511.418 603.078 490.033 512.484 526.212 394.895 506.751 340.437 446.565 339.751 445.806 339.077 445.043 338.414 444.275 279.124 448.87 225.418 420.858 218.459 381.709 214.75 360.842 225.154 339.956 246.898 324.617 195.562 304.606 178.317 260.685 208.381 226.515 225.725 206.802 256.145 193.771 290.285 191.428Z" stroke="#2F528F" stroke-width="1.33333" stroke-miterlimit="8" fill="#DAE3F3" fill-rule="evenodd"/><path d="M310.847 332.199C288.931 333.336 267.017 329.982 248.047 322.588M366.257 437.388C357.443 439.712 348.205 441.258 338.78 441.989M603.017 487.933C596.388 481.349 590.838 474.314 586.462 466.948M909.169 435.604C908.195 443.412 905.979 451.13 902.559 458.63M1040.61 293.33C1090.31 309.343 1121.67 342.822 1121.22 379.387M1230.74 201.672C1222.69 214.123 1210.41 225.168 1194.85 233.941M1144.62 81.9386C1145.99 86.9666 1146.62 92.0702 1146.51 97.1786M915.392 64.1619C920.069 57.131 926.262 50.5845 933.78 44.7263M743.412 73.4241C745.32 67.6138 748.312 61.9833 752.318 56.6624M541.583 79.1165C553.28 83.6534 564.101 89.1139 573.809 95.3783M296.815 206.918C294.262 201.322 292.381 195.601 291.191 189.809" stroke="#2F528F" stroke-width="1.33333" stroke-miterlimit="8" fill="none" fill-rule="evenodd"/><path d="M327.5 204.167C327.5 193.305 336.305 184.5 347.167 184.5L425.833 184.5C436.695 184.5 445.5 193.305 445.5 204.167L445.5 282.833C445.5 293.695 436.695 302.5 425.833 302.5L347.167 302.5C336.305 302.5 327.5 293.695 327.5 282.833Z" stroke="#2F528F" stroke-width="1.33333" stroke-miterlimit="8" fill="#4472C4" fill-rule="evenodd"/><text fill="#FFFFFF" font-family="Calibri,Calibri_MSFontService,sans-serif" font-weight="400" font-size="24" transform="translate(345.875 236)">Tailwind <tspan font-size="24" x="4.42667" y="29">Traders</tspan></text><path d="M677.5 103C677.5 92.2307 686.231 83.5001 697 83.5001L776 83.5001C786.769 83.5001 795.5 92.2307 795.5 103L795.5 181C795.5 191.769 786.769 200.5 776 200.5L697 200.5C686.231 200.5 677.5 191.769 677.5 181Z" stroke="#2F528F" stroke-width="1.33333" stroke-miterlimit="8" fill="#4472C4" fill-rule="evenodd"/><text fill="#FFFFFF" font-family="Calibri,Calibri_MSFontService,sans-serif" font-weight="400" font-size="24" transform="translate(696.645 120)">Best For <tspan font-size="24" x="22.0134" y="29">You </tspan><tspan font-size="24" x="-2.32666" y="58">Organics</tspan></text><path d="M656.5 256.5 802 256.5 815.5 270 815.5 337.5 656.5 337.5Z" stroke="#2F528F" stroke-width="1.33333" stroke-miterlimit="8" fill="#4472C4" fill-rule="evenodd"/><text fill="#FFFFFF" font-family="Calibri,Calibri_MSFontService,sans-serif" font-weight="400" font-size="24" transform="translate(680.256 289)">Cibus<tspan font-size="24" x="58.5" y="0">Data </tspan><tspan font-size="24" x="-1.98663" y="29">Operations</tspan></text><path d="M34.5001 521C34.5001 488.139 86.2112 461.5 150 461.5 213.789 461.5 265.5 488.139 265.5 521 265.5 553.861 213.789 580.5 150 580.5 86.2112 580.5 34.5001 553.861 34.5001 521Z" stroke="#A9D18E" stroke-width="1.33333" stroke-miterlimit="8" fill="#C5E0B4" fill-rule="evenodd"/><g clip-path="url(#clip6)" filter="url(#fx0)" transform="translate(62 482)"><g clip-path="url(#clip7)"><path d="M10.4531-0.832031C10.4531-0.691406 10.4453-0.568359 10.4297-0.462891 10.4141-0.357422 10.3867-0.269531 10.3477-0.199219 10.3086-0.128906 10.2637-0.078125 10.2129-0.046875 10.1621-0.015625 10.1055 0 10.043 0L2.76562 0C2.58594 0 2.41602-0.0605469 2.25586-0.181641 2.0957-0.302734 2.01562-0.515625 2.01562-0.820312L2.01562-14.3438C2.01562-14.6484 2.0957-14.8613 2.25586-14.9824 2.41602-15.1035 2.58594-15.1641 2.76562-15.1641L9.96094-15.1641C10.0234-15.1641 10.0801-15.1484 10.1309-15.1172 10.1816-15.0859 10.2227-15.0352 10.2539-14.9648 10.2852-14.8945 10.3105-14.8066 10.3301-14.7012 10.3496-14.5957 10.3594-14.4648 10.3594-14.3086 10.3594-14.168 10.3496-14.0449 10.3301-13.9395 10.3105-13.834 10.2852-13.748 10.2539-13.6816 10.2227-13.6152 10.1816-13.5664 10.1309-13.5352 10.0801-13.5039 10.0234-13.4883 9.96094-13.4883L4.03125-13.4883 4.03125-8.73047 9.11719-8.73047C9.17969-8.73047 9.23633-8.71289 9.28711-8.67773 9.33789-8.64258 9.38086-8.59375 9.41602-8.53125 9.45117-8.46875 9.47656-8.38281 9.49219-8.27344 9.50781-8.16406 9.51562-8.03516 9.51562-7.88672 9.51562-7.74609 9.50781-7.625 9.49219-7.52344 9.47656-7.42187 9.45117-7.33984 9.41602-7.27734 9.38086-7.21484 9.33789-7.16992 9.28711-7.14258 9.23633-7.11523 9.17969-7.10156 9.11719-7.10156L4.03125-7.10156 4.03125-1.67578 10.043-1.67578C10.1055-1.67578 10.1621-1.66016 10.2129-1.62891 10.2637-1.59766 10.3086-1.54883 10.3477-1.48242 10.3867-1.41602 10.4141-1.33008 10.4297-1.22461 10.4453-1.11914 10.4531-0.988281 10.4531-0.832031ZM22.5417-0.292969C22.5417-0.230469 22.526-0.177734 22.4948-0.134766 22.4635-0.0917969 22.4128-0.0546875 22.3424-0.0234375 22.2721 0.0078125 22.1745 0.03125 22.0495 0.046875 21.9245 0.0625 21.7682 0.0703125 21.5807 0.0703125 21.3854 0.0703125 21.2253 0.0625 21.1003 0.046875 20.9753 0.03125 20.8776 0.0078125 20.8073-0.0234375 20.737-0.0546875 20.6862-0.0917969 20.6549-0.134766 20.6237-0.177734 20.6081-0.230469 20.6081-0.292969L20.6081-6.46875C20.6081-7.07031 20.5612-7.55469 20.4674-7.92188 20.3737-8.28906 20.237-8.60547 20.0573-8.87109 19.8776-9.13672 19.6452-9.33984 19.36-9.48047 19.0749-9.62109 18.7448-9.69141 18.3698-9.69141 17.8854-9.69141 17.401-9.51953 16.9167-9.17578 16.4323-8.83203 15.9245-8.32812 15.3932-7.66406L15.3932-0.292969C15.3932-0.230469 15.3776-0.177734 15.3464-0.134766 15.3151-0.0917969 15.2643-0.0546875 15.194-0.0234375 15.1237 0.0078125 15.026 0.03125 14.901 0.046875 14.776 0.0625 14.6159 0.0703125 14.4206 0.0703125 14.2331 0.0703125 14.0768 0.0625 13.9518 0.046875 13.8268 0.03125 13.7272 0.0078125 13.653-0.0234375 13.5788-0.0546875 13.528-0.0917969 13.5007-0.134766 13.4733-0.177734 13.4596-0.230469 13.4596-0.292969L13.4596-10.8398C13.4596-10.9023 13.4714-10.9551 13.4948-10.998 13.5182-11.041 13.5651-11.0801 13.6354-11.1152 13.7057-11.1504 13.7956-11.1738 13.9049-11.1855 14.0143-11.1973 14.1589-11.2031 14.3385-11.2031 14.5104-11.2031 14.653-11.1973 14.7663-11.1855 14.8796-11.1738 14.9674-11.1504 15.0299-11.1152 15.0924-11.0801 15.1374-11.041 15.1647-10.998 15.1921-10.9551 15.2057-10.9023 15.2057-10.8398L15.2057-9.44531C15.7995-10.1094 16.3913-10.5957 16.9811-10.9043 17.571-11.2129 18.1667-11.3672 18.7682-11.3672 19.4714-11.3672 20.0632-11.248 20.5436-11.0098 21.0241-10.7715 21.4128-10.4531 21.7096-10.0547 22.0065-9.65625 22.2194-9.18945 22.3483-8.6543 22.4772-8.11914 22.5417-7.47656 22.5417-6.72656ZM34.3747-10.8633C34.3747-10.832 34.3728-10.7988 34.3689-10.7637 34.365-10.7285 34.3591-10.6914 34.3513-10.6523 34.3435-10.6133 34.3337-10.5703 34.322-10.5234 34.3103-10.4766 34.2966-10.4258 34.281-10.3711L30.6833-0.351562C30.6521-0.265625 30.6111-0.195312 30.5603-0.140625 30.5095-0.0859375 30.4333-0.0429687 30.3318-0.0117188 30.2302 0.0195312 30.1013 0.0410156 29.9451 0.0527344 29.7888 0.0644531 29.5935 0.0703125 29.3591 0.0703125 29.1247 0.0703125 28.9294 0.0625 28.7732 0.046875 28.6169 0.03125 28.49 0.0078125 28.3923-0.0234375 28.2947-0.0546875 28.2185-0.0976562 28.1638-0.152344 28.1091-0.207031 28.0661-0.273438 28.0349-0.351562L24.449-10.3711C24.4177-10.4648 24.3923-10.5469 24.3728-10.6172 24.3533-10.6875 24.3415-10.7402 24.3376-10.7754 24.3337-10.8105 24.3318-10.8398 24.3318-10.8633 24.3318-10.9258 24.3474-10.9805 24.3786-11.0273 24.4099-11.0742 24.4626-11.1113 24.5368-11.1387 24.6111-11.166 24.7087-11.1836 24.8298-11.1914 24.9509-11.1992 25.1013-11.2031 25.281-11.2031 25.5076-11.2031 25.6892-11.1973 25.8259-11.1855 25.9626-11.1738 26.0681-11.1523 26.1423-11.1211 26.2165-11.0898 26.2712-11.0508 26.3064-11.0039 26.3415-10.957 26.3747-10.8984 26.406-10.8281L29.3826-2.13281 29.4294-1.99219 29.4646-2.13281 32.406-10.8281C32.4216-10.8984 32.449-10.957 32.488-11.0039 32.5271-11.0508 32.5837-11.0898 32.6579-11.1211 32.7322-11.1523 32.8337-11.1738 32.9626-11.1855 33.0915-11.1973 33.2615-11.2031 33.4724-11.2031 33.6521-11.2031 33.8005-11.1992 33.9177-11.1914 34.0349-11.1836 34.1267-11.1641 34.1931-11.1328 34.2595-11.1016 34.3064-11.0645 34.3337-11.0215 34.3611-10.9785 34.3747-10.9258 34.3747-10.8633ZM38.4932-0.292969C38.4932-0.230469 38.4776-0.177734 38.4464-0.134766 38.4151-0.0917969 38.3643-0.0546875 38.294-0.0234375 38.2237 0.0078125 38.126 0.03125 38.001 0.046875 37.876 0.0625 37.7159 0.0703125 37.5206 0.0703125 37.3331 0.0703125 37.1768 0.0625 37.0518 0.046875 36.9268 0.03125 36.8272 0.0078125 36.753-0.0234375 36.6788-0.0546875 36.628-0.0917969 36.6007-0.134766 36.5733-0.177734 36.5596-0.230469 36.5596-0.292969L36.5596-10.8398C36.5596-10.8945 36.5733-10.9453 36.6007-10.9922 36.628-11.0391 36.6788-11.0781 36.753-11.1094 36.8272-11.1406 36.9268-11.1641 37.0518-11.1797 37.1768-11.1953 37.3331-11.2031 37.5206-11.2031 37.7159-11.2031 37.876-11.1953 38.001-11.1797 38.126-11.1641 38.2237-11.1406 38.294-11.1094 38.3643-11.0781 38.4151-11.0391 38.4464-10.9922 38.4776-10.9453 38.4932-10.8945 38.4932-10.8398ZM38.7159-14.4023C38.7159-13.9492 38.63-13.6406 38.4581-13.4766 38.2862-13.3125 37.9698-13.2305 37.5089-13.2305 37.0557-13.2305 36.7452-13.3105 36.5772-13.4707 36.4092-13.6309 36.3253-13.9336 36.3253-14.3789 36.3253-14.832 36.4112-15.1406 36.5831-15.3047 36.755-15.4687 37.0714-15.5508 37.5323-15.5508 37.9854-15.5508 38.296-15.4707 38.4639-15.3105 38.6319-15.1504 38.7159-14.8477 38.7159-14.4023ZM48.2237-10.1484C48.2237-9.97656 48.2198-9.83203 48.212-9.71484 48.2042-9.59766 48.1885-9.50586 48.1651-9.43945 48.1417-9.37305 48.1124-9.32227 48.0772-9.28711 48.0421-9.25195 47.9932-9.23438 47.9307-9.23438 47.8682-9.23438 47.7921-9.25195 47.7022-9.28711 47.6124-9.32227 47.5108-9.35742 47.3975-9.39258 47.2842-9.42773 47.1573-9.46094 47.0167-9.49219 46.876-9.52344 46.7237-9.53906 46.5596-9.53906 46.3643-9.53906 46.1729-9.5 45.9854-9.42188 45.7979-9.34375 45.6007-9.21484 45.3936-9.03516 45.1866-8.85547 44.9698-8.61719 44.7432-8.32031 44.5167-8.02344 44.2667-7.66016 43.9932-7.23047L43.9932-0.292969C43.9932-0.230469 43.9776-0.177734 43.9464-0.134766 43.9151-0.0917969 43.8643-0.0546875 43.794-0.0234375 43.7237 0.0078125 43.626 0.03125 43.501 0.046875 43.376 0.0625 43.2159 0.0703125 43.0206 0.0703125 42.8331 0.0703125 42.6768 0.0625 42.5518 0.046875 42.4268 0.03125 42.3272 0.0078125 42.253-0.0234375 42.1788-0.0546875 42.128-0.0917969 42.1007-0.134766 42.0733-0.177734 42.0596-0.230469 42.0596-0.292969L42.0596-10.8398C42.0596-10.9023 42.0714-10.9551 42.0948-10.998 42.1182-11.041 42.1651-11.0801 42.2354-11.1152 42.3057-11.1504 42.3956-11.1738 42.505-11.1855 42.6143-11.1973 42.7589-11.2031 42.9385-11.2031 43.1104-11.2031 43.253-11.1973 43.3663-11.1855 43.4796-11.1738 43.5675-11.1504 43.63-11.1152 43.6925-11.0801 43.7374-11.041 43.7647-10.998 43.7921-10.9551 43.8057-10.9023 43.8057-10.8398L43.8057-9.30469C44.0948-9.72656 44.3663-10.0703 44.6202-10.3359 44.8741-10.6016 45.1143-10.8105 45.3409-10.9629 45.5675-11.1152 45.7921-11.2207 46.0147-11.2793 46.2374-11.3379 46.462-11.3672 46.6885-11.3672 46.7901-11.3672 46.9053-11.3613 47.0342-11.3496 47.1632-11.3379 47.2979-11.3164 47.4385-11.2852 47.5792-11.2539 47.7061-11.2188 47.8194-11.1797 47.9327-11.1406 48.0128-11.1016 48.0596-11.0625 48.1065-11.0234 48.1378-10.9863 48.1534-10.9512 48.169-10.916 48.1827-10.8711 48.1944-10.8164 48.2061-10.7617 48.2139-10.6816 48.2178-10.5762 48.2217-10.4707 48.2237-10.3281 48.2237-10.1484ZM59.8149-5.68359C59.8149-4.82422 59.7016-4.0332 59.4751-3.31055 59.2485-2.58789 58.9106-1.96484 58.4614-1.44141 58.0122-0.917969 57.4497-0.509766 56.7739-0.216797 56.0981 0.0761719 55.3149 0.222656 54.4243 0.222656 53.5571 0.222656 52.8012 0.09375 52.1567-0.164062 51.5122-0.421875 50.9751-0.796875 50.5454-1.28906 50.1157-1.78125 49.7954-2.37891 49.5844-3.08203 49.3735-3.78516 49.268-4.58203 49.268-5.47266 49.268-6.33203 49.3794-7.12305 49.602-7.8457 49.8247-8.56836 50.1606-9.19141 50.6098-9.71484 51.059-10.2383 51.6196-10.6445 52.2915-10.9336 52.9633-11.2227 53.7485-11.3672 54.6469-11.3672 55.5141-11.3672 56.27-11.2383 56.9145-10.9805 57.559-10.7227 58.0961-10.3477 58.5258-9.85547 58.9555-9.36328 59.2778-8.76562 59.4926-8.0625 59.7075-7.35937 59.8149-6.56641 59.8149-5.68359ZM57.811-5.55469C57.811-6.125 57.7578-6.66406 57.6513-7.17188 57.5449-7.67969 57.3695-8.125 57.1251-8.50781 56.8807-8.89062 56.5496-9.19336 56.1318-9.41602 55.714-9.63867 55.1937-9.75 54.5709-9.75 53.9955-9.75 53.5008-9.64844 53.087-9.44531 52.6731-9.24219 52.3321-8.95508 52.0641-8.58398 51.7961-8.21289 51.5971-7.77344 51.467-7.26562 51.337-6.75781 51.2719-6.20312 51.2719-5.60156 51.2719-5.02344 51.3252-4.48047 51.4316-3.97266 51.538-3.46484 51.7154-3.02148 51.9637-2.64258 52.212-2.26367 52.545-1.96289 52.9628-1.74023 53.3806-1.51758 53.9009-1.40625 54.5237-1.40625 55.0913-1.40625 55.584-1.50781 56.0018-1.71094 56.4196-1.91406 56.7625-2.19922 57.0305-2.56641 57.2985-2.93359 57.4956-3.37109 57.6218-3.87891 57.7479-4.38672 57.811-4.94531 57.811-5.55469ZM71.755-0.292969C71.755-0.230469 71.7394-0.177734 71.7081-0.134766 71.6769-0.0917969 71.6261-0.0546875 71.5558-0.0234375 71.4855 0.0078125 71.3878 0.03125 71.2628 0.046875 71.1378 0.0625 70.9816 0.0703125 70.7941 0.0703125 70.5988 0.0703125 70.4386 0.0625 70.3136 0.046875 70.1886 0.03125 70.0909 0.0078125 70.0206-0.0234375 69.9503-0.0546875 69.8995-0.0917969 69.8683-0.134766 69.837-0.177734 69.8214-0.230469 69.8214-0.292969L69.8214-6.46875C69.8214-7.07031 69.7745-7.55469 69.6808-7.92188 69.587-8.28906 69.4503-8.60547 69.2706-8.87109 69.0909-9.13672 68.8585-9.33984 68.5734-9.48047 68.2882-9.62109 67.9581-9.69141 67.5831-9.69141 67.0988-9.69141 66.6144-9.51953 66.13-9.17578 65.6456-8.83203 65.1378-8.32812 64.6066-7.66406L64.6066-0.292969C64.6066-0.230469 64.5909-0.177734 64.5597-0.134766 64.5284-0.0917969 64.4777-0.0546875 64.4073-0.0234375 64.337 0.0078125 64.2394 0.03125 64.1144 0.046875 63.9894 0.0625 63.8292 0.0703125 63.6339 0.0703125 63.4464 0.0703125 63.2902 0.0625 63.1652 0.046875 63.0402 0.03125 62.9405 0.0078125 62.8663-0.0234375 62.7921-0.0546875 62.7413-0.0917969 62.714-0.134766 62.6866-0.177734 62.673-0.230469 62.673-0.292969L62.673-10.8398C62.673-10.9023 62.6847-10.9551 62.7081-10.998 62.7316-11.041 62.7784-11.0801 62.8488-11.1152 62.9191-11.1504 63.0089-11.1738 63.1183-11.1855 63.2277-11.1973 63.3722-11.2031 63.5519-11.2031 63.7238-11.2031 63.8663-11.1973 63.9796-11.1855 64.0929-11.1738 64.1808-11.1504 64.2433-11.1152 64.3058-11.0801 64.3507-11.041 64.3781-10.998 64.4054-10.9551 64.4191-10.9023 64.4191-10.8398L64.4191-9.44531C65.0128-10.1094 65.6046-10.5957 66.1945-10.9043 66.7843-11.2129 67.38-11.3672 67.9816-11.3672 68.6847-11.3672 69.2765-11.248 69.757-11.0098 70.2374-10.7715 70.6261-10.4531 70.923-10.0547 71.2198-9.65625 71.4327-9.18945 71.5616-8.6543 71.6906-8.11914 71.755-7.47656 71.755-6.72656ZM90.9842-0.292969C90.9842-0.230469 90.9685-0.177734 90.9373-0.134766 90.906-0.0917969 90.8553-0.0546875 90.785-0.0234375 90.7146 0.0078125 90.617 0.03125 90.492 0.046875 90.367 0.0625 90.2107 0.0703125 90.0232 0.0703125 89.8279 0.0703125 89.6678 0.0625 89.5428 0.046875 89.4178 0.03125 89.3181 0.0078125 89.2439-0.0234375 89.1697-0.0546875 89.117-0.0917969 89.0857-0.134766 89.0545-0.177734 89.0388-0.230469 89.0389-0.292969L89.0389-6.70312C89.0388-7.14844 88.9998-7.55469 88.9217-7.92188 88.8435-8.28906 88.7185-8.60547 88.5467-8.87109 88.3748-9.13672 88.156-9.33984 87.8904-9.48047 87.6248-9.62109 87.3123-9.69141 86.9529-9.69141 86.5076-9.69141 86.0603-9.51953 85.6111-9.17578 85.1619-8.83203 84.6678-8.32812 84.1287-7.66406L84.1287-0.292969C84.1287-0.230469 84.1131-0.177734 84.0818-0.134766 84.0506-0.0917969 83.9978-0.0546875 83.9236-0.0234375 83.8494 0.0078125 83.7498 0.03125 83.6248 0.046875 83.4998 0.0625 83.3435 0.0703125 83.156 0.0703125 82.9763 0.0703125 82.8221 0.0625 82.6932 0.046875 82.5642 0.03125 82.4627 0.0078125 82.3885-0.0234375 82.3142-0.0546875 82.2635-0.0917969 82.2361-0.134766 82.2088-0.177734 82.1951-0.230469 82.1951-0.292969L82.1951-6.70312C82.1951-7.14844 82.1521-7.55469 82.0662-7.92188 81.9803-8.28906 81.8513-8.60547 81.6795-8.87109 81.5076-9.13672 81.2908-9.33984 81.0291-9.48047 80.7674-9.62109 80.4568-9.69141 80.0975-9.69141 79.6521-9.69141 79.2029-9.51953 78.7498-9.17578 78.2967-8.83203 77.8045-8.32812 77.2732-7.66406L77.2732-0.292969C77.2732-0.230469 77.2576-0.177734 77.2264-0.134766 77.1951-0.0917969 77.1443-0.0546875 77.074-0.0234375 77.0037 0.0078125 76.906 0.03125 76.781 0.046875 76.656 0.0625 76.4959 0.0703125 76.3006 0.0703125 76.1131 0.0703125 75.9568 0.0625 75.8318 0.046875 75.7068 0.03125 75.6072 0.0078125 75.533-0.0234375 75.4588-0.0546875 75.408-0.0917969 75.3807-0.134766 75.3533-0.177734 75.3396-0.230469 75.3396-0.292969L75.3396-10.8398C75.3396-10.9023 75.3513-10.9551 75.3748-10.998 75.3982-11.041 75.4451-11.0801 75.5154-11.1152 75.5857-11.1504 75.6756-11.1738 75.785-11.1855 75.8943-11.1973 76.0388-11.2031 76.2185-11.2031 76.3904-11.2031 76.533-11.1973 76.6463-11.1855 76.7596-11.1738 76.8474-11.1504 76.91-11.1152 76.9724-11.0801 77.0174-11.041 77.0447-10.998 77.0721-10.9551 77.0857-10.9023 77.0857-10.8398L77.0857-9.44531C77.6795-10.1094 78.2556-10.5957 78.8142-10.9043 79.3728-11.2129 79.9373-11.3672 80.5076-11.3672 80.9451-11.3672 81.3377-11.3164 81.6853-11.2148 82.033-11.1133 82.3396-10.9707 82.6053-10.7871 82.8709-10.6035 83.0974-10.3848 83.285-10.1309 83.4724-9.87695 83.6287-9.59375 83.7537-9.28125 84.1053-9.66406 84.4392-9.98828 84.7557-10.2539 85.0721-10.5195 85.3767-10.7344 85.6697-10.8984 85.9627-11.0625 86.2478-11.1816 86.5252-11.2559 86.8025-11.3301 87.0818-11.3672 87.3631-11.3672 88.0428-11.3672 88.6131-11.248 89.074-11.0098 89.5349-10.7715 89.908-10.4531 90.1932-10.0547 90.4783-9.65625 90.6814-9.18945 90.8025-8.6543 90.9236-8.11914 90.9842-7.55469 90.9842-6.96094ZM103.506-6.02344C103.506-5.71875 103.43-5.50195 103.277-5.37305 103.124-5.24414 102.949-5.17969 102.753-5.17969L95.8071-5.17969C95.8071-4.59375 95.866-4.06641 95.9837-3.59766 96.1014-3.12891 96.2977-2.72656 96.5725-2.39062 96.8472-2.05469 97.2045-1.79687 97.6441-1.61719 98.0837-1.4375 98.6215-1.34766 99.2573-1.34766 99.7598-1.34766 100.207-1.38867 100.6-1.4707 100.992-1.55273 101.332-1.64453 101.618-1.74609 101.905-1.84766 102.14-1.93945 102.325-2.02148 102.51-2.10352 102.649-2.14453 102.743-2.14453 102.798-2.14453 102.847-2.13086 102.89-2.10352 102.933-2.07617 102.967-2.03516 102.99-1.98047 103.014-1.92578 103.032-1.84961 103.043-1.75195 103.055-1.6543 103.061-1.53516 103.061-1.39453 103.061-1.29297 103.057-1.20508 103.049-1.13086 103.041-1.05664 103.032-0.990234 103.02-0.931641 103.008-0.873047 102.989-0.820312 102.961-0.773438 102.934-0.726562 102.899-0.681641 102.856-0.638672 102.813-0.595703 102.686-0.525391 102.475-0.427734 102.264-0.330078 101.991-0.234375 101.655-0.140625 101.319-0.046875 100.93 0.0371094 100.489 0.111328 100.047 0.185547 99.5766 0.222656 99.0766 0.222656 98.2094 0.222656 97.4497 0.101562 96.7973-0.140625 96.145-0.382812 95.5961-0.742188 95.1508-1.21875 94.7055-1.69531 94.3696-2.29297 94.143-3.01172 93.9165-3.73047 93.8032-4.56641 93.8032-5.51953 93.8032-6.42578 93.9204-7.24023 94.1547-7.96289 94.3891-8.68555 94.727-9.29883 95.1684-9.80273 95.6098-10.3066 96.143-10.6934 96.768-10.9629 97.393-11.2324 98.0922-11.3672 98.8657-11.3672 99.6938-11.3672 100.399-11.2344 100.981-10.9688 101.563-10.7031 102.041-10.3457 102.416-9.89648 102.791-9.44727 103.067-8.91992 103.243-8.31445 103.418-7.70898 103.506-7.0625 103.506-6.375ZM101.561-6.59766C101.584-7.61328 101.358-8.41016 100.883-8.98828 100.407-9.56641 99.702-9.85547 98.7666-9.85547 98.2871-9.85547 97.8666-9.76562 97.505-9.58594 97.1434-9.40625 96.8408-9.16797 96.5971-8.87109 96.3534-8.57422 96.1647-8.22852 96.0311-7.83398 95.8975-7.43945 95.8228-7.02734 95.8071-6.59766ZM115.588-0.292969C115.588-0.230469 115.573-0.177734 115.541-0.134766 115.51-0.0917969 115.459-0.0546875 115.389-0.0234375 115.319 0.0078125 115.221 0.03125 115.096 0.046875 114.971 0.0625 114.815 0.0703125 114.627 0.0703125 114.432 0.0703125 114.272 0.0625 114.147 0.046875 114.022 0.03125 113.924 0.0078125 113.854-0.0234375 113.784-0.0546875 113.733-0.0917969 113.702-0.134766 113.67-0.177734 113.655-0.230469 113.655-0.292969L113.655-6.46875C113.655-7.07031 113.608-7.55469 113.514-7.92188 113.42-8.28906 113.284-8.60547 113.104-8.87109 112.924-9.13672 112.692-9.33984 112.407-9.48047 112.122-9.62109 111.791-9.69141 111.416-9.69141 110.932-9.69141 110.448-9.51953 109.963-9.17578 109.479-8.83203 108.971-8.32812 108.44-7.66406L108.44-0.292969C108.44-0.230469 108.424-0.177734 108.393-0.134766 108.362-0.0917969 108.311-0.0546875 108.241-0.0234375 108.17 0.0078125 108.073 0.03125 107.948 0.046875 107.823 0.0625 107.663 0.0703125 107.467 0.0703125 107.28 0.0703125 107.123 0.0625 106.998 0.046875 106.873 0.03125 106.774 0.0078125 106.7-0.0234375 106.625-0.0546875 106.575-0.0917969 106.547-0.134766 106.52-0.177734 106.506-0.230469 106.506-0.292969L106.506-10.8398C106.506-10.9023 106.518-10.9551 106.541-10.998 106.565-11.041 106.612-11.0801 106.682-11.1152 106.752-11.1504 106.842-11.1738 106.952-11.1855 107.061-11.1973 107.206-11.2031 107.385-11.2031 107.557-11.2031 107.7-11.1973 107.813-11.1855 107.926-11.1738 108.014-11.1504 108.077-11.1152 108.139-11.0801 108.184-11.041 108.211-10.998 108.239-10.9551 108.252-10.9023 108.252-10.8398L108.252-9.44531C108.846-10.1094 109.438-10.5957 110.028-10.9043 110.618-11.2129 111.213-11.3672 111.815-11.3672 112.518-11.3672 113.11-11.248 113.59-11.0098 114.071-10.7715 114.459-10.4531 114.756-10.0547 115.053-9.65625 115.266-9.18945 115.395-8.6543 115.524-8.11914 115.588-7.47656 115.588-6.72656ZM124.437-1.06641C124.437-0.839844 124.422-0.660156 124.39-0.527344 124.359-0.394531 124.312-0.296875 124.25-0.234375 124.187-0.171875 124.094-0.113281 123.969-0.0585938 123.844-0.00390625 123.701 0.0410156 123.541 0.0761719 123.381 0.111328 123.211 0.140625 123.031 0.164062 122.851 0.1875 122.672 0.199219 122.492 0.199219 121.945 0.199219 121.476 0.126953 121.086-0.0175781 120.695-0.162109 120.375-0.380859 120.125-0.673828 119.875-0.966797 119.693-1.33789 119.58-1.78711 119.467-2.23633 119.41-2.76562 119.41-3.375L119.41-9.53906 117.933-9.53906C117.816-9.53906 117.723-9.60156 117.652-9.72656 117.582-9.85156 117.547-10.0547 117.547-10.3359 117.547-10.4844 117.556-10.6094 117.576-10.7109 117.596-10.8125 117.621-10.8965 117.652-10.9629 117.683-11.0293 117.724-11.0762 117.775-11.1035 117.826-11.1309 117.883-11.1445 117.945-11.1445L119.41-11.1445 119.41-13.6523C119.41-13.707 119.424-13.7578 119.451-13.8047 119.478-13.8516 119.529-13.8926 119.603-13.9277 119.678-13.9629 119.777-13.9883 119.902-14.0039 120.027-14.0195 120.183-14.0273 120.371-14.0273 120.566-14.0273 120.726-14.0195 120.851-14.0039 120.976-13.9883 121.074-13.9629 121.144-13.9277 121.215-13.8926 121.265-13.8516 121.297-13.8047 121.328-13.7578 121.344-13.707 121.344-13.6523L121.344-11.1445 124.051-11.1445C124.113-11.1445 124.168-11.1309 124.215-11.1035 124.262-11.0762 124.303-11.0293 124.338-10.9629 124.373-10.8965 124.398-10.8125 124.414-10.7109 124.43-10.6094 124.437-10.4844 124.437-10.3359 124.437-10.0547 124.402-9.85156 124.332-9.72656 124.262-9.60156 124.168-9.53906 124.051-9.53906L121.344-9.53906 121.344-3.65625C121.344-2.92969 121.451-2.38086 121.666-2.00977 121.881-1.63867 122.265-1.45312 122.82-1.45312 123-1.45312 123.16-1.4707 123.301-1.50586 123.441-1.54102 123.566-1.57812 123.676-1.61719 123.785-1.65625 123.879-1.69336 123.957-1.72852 124.035-1.76367 124.105-1.78125 124.168-1.78125 124.207-1.78125 124.244-1.77148 124.279-1.75195 124.314-1.73242 124.342-1.69531 124.361-1.64062 124.381-1.58594 124.398-1.51172 124.414-1.41797 124.43-1.32422 124.437-1.20703 124.437-1.06641ZM134.605-0.28125C134.605-0.1875 134.574-0.117187 134.511-0.0703125 134.449-0.0234375 134.363 0.0117188 134.253 0.0351562 134.144 0.0585937 133.984 0.0703125 133.773 0.0703125 133.57 0.0703125 133.408 0.0585937 133.287 0.0351562 133.165 0.0117188 133.078-0.0234375 133.023-0.0703125 132.968-0.117187 132.941-0.1875 132.941-0.28125L132.941-1.33594C132.48-0.84375 131.966-0.460937 131.4-0.1875 130.833 0.0859375 130.234 0.222656 129.601 0.222656 129.046 0.222656 128.544 0.150391 128.095 0.00585938 127.646-0.138672 127.263-0.347656 126.947-0.621094 126.63-0.894531 126.384-1.23047 126.208-1.62891 126.033-2.02734 125.945-2.48047 125.945-2.98828 125.945-3.58203 126.066-4.09766 126.308-4.53516 126.55-4.97266 126.898-5.33594 127.351-5.625 127.804-5.91406 128.359-6.13086 129.015-6.27539 129.671-6.41992 130.41-6.49219 131.23-6.49219L132.683-6.49219 132.683-7.3125C132.683-7.71875 132.64-8.07812 132.554-8.39062 132.468-8.70312 132.33-8.96289 132.138-9.16992 131.947-9.37695 131.699-9.5332 131.394-9.63867 131.089-9.74414 130.714-9.79688 130.269-9.79688 129.792-9.79688 129.365-9.74023 128.986-9.62695 128.607-9.51367 128.275-9.38867 127.99-9.25195 127.705-9.11523 127.466-8.99023 127.275-8.87695 127.083-8.76367 126.941-8.70703 126.847-8.70703 126.785-8.70703 126.73-8.72266 126.683-8.75391 126.636-8.78516 126.595-8.83203 126.56-8.89453 126.525-8.95703 126.499-9.03711 126.484-9.13477 126.468-9.23242 126.46-9.33984 126.46-9.45703 126.46-9.65234 126.474-9.80664 126.501-9.91992 126.529-10.0332 126.595-10.1406 126.701-10.2422 126.806-10.3438 126.988-10.4629 127.246-10.5996 127.503-10.7363 127.8-10.8613 128.136-10.9746 128.472-11.0879 128.839-11.1816 129.238-11.2559 129.636-11.3301 130.039-11.3672 130.445-11.3672 131.203-11.3672 131.847-11.2812 132.378-11.1094 132.91-10.9375 133.339-10.6855 133.667-10.3535 133.996-10.0215 134.234-9.60938 134.382-9.11719 134.531-8.625 134.605-8.05078 134.605-7.39453ZM132.683-5.09766 131.031-5.09766C130.499-5.09766 130.039-5.05273 129.648-4.96289 129.257-4.87305 128.933-4.74023 128.675-4.56445 128.417-4.38867 128.228-4.17773 128.107-3.93164 127.986-3.68555 127.925-3.40234 127.925-3.08203 127.925-2.53516 128.099-2.09961 128.447-1.77539 128.794-1.45117 129.281-1.28906 129.906-1.28906 130.414-1.28906 130.884-1.41797 131.318-1.67578 131.751-1.93359 132.207-2.32812 132.683-2.85938ZM140.093-0.292969C140.093-0.230469 140.078-0.177734 140.046-0.134766 140.015-0.0917969 139.964-0.0546875 139.894-0.0234375 139.824 0.0078125 139.726 0.03125 139.601 0.046875 139.476 0.0625 139.316 0.0703125 139.121 0.0703125 138.933 0.0703125 138.777 0.0625 138.652 0.046875 138.527 0.03125 138.427 0.0078125 138.353-0.0234375 138.279-0.0546875 138.228-0.0917969 138.201-0.134766 138.173-0.177734 138.16-0.230469 138.16-0.292969L138.16-15.9492C138.16-16.0117 138.173-16.0664 138.201-16.1133 138.228-16.1602 138.279-16.1992 138.353-16.2305 138.427-16.2617 138.527-16.2852 138.652-16.3008 138.777-16.3164 138.933-16.3242 139.121-16.3242 139.316-16.3242 139.476-16.3164 139.601-16.3008 139.726-16.2852 139.824-16.2617 139.894-16.2305 139.964-16.1992 140.015-16.1602 140.046-16.1133 140.078-16.0664 140.093-16.0117 140.093-15.9492Z" transform="translate(17.2614 32)"/></g></g><text font-family="Calibri,Calibri_MSFontService,sans-serif" font-weight="400" font-size="24" transform="translate(78.565 514)">Environmental </text><g clip-path="url(#clip8)" filter="url(#fx1)" transform="translate(105 511)"><g clip-path="url(#clip9)"><path d="M13.4766-0.832031C13.4766-0.675781 13.4503-0.542969 13.3978-0.433594 13.3453-0.324219 13.2767-0.234375 13.1918-0.164062 13.107-0.09375 13.0121-0.0429687 12.907-0.0117188 12.802 0.0195312 12.6969 0.0351562 12.5918 0.0351562L11.9253 0.0351562C11.7152 0.0351562 11.5314 0.0136719 11.3738-0.0292969 11.2162-0.0722656 11.0667-0.150391 10.9254-0.263672 10.784-0.376953 10.6426-0.53125 10.5012-0.726562 10.3598-0.921875 10.2097-1.17188 10.051-1.47656L5.42505-10.1016C5.18323-10.5469 4.93948-11.0137 4.69382-11.502 4.44815-11.9902 4.21948-12.4648 4.00781-12.9258L3.98438-12.9258C4-12.3633 4.01172-11.7891 4.01953-11.2031 4.02734-10.6172 4.03125-10.0352 4.03125-9.45703L4.03125-0.304688C4.03125-0.25 4.01477-0.197266 3.98181-0.146484 3.94885-0.0957031 3.89322-0.0566406 3.81491-0.0292969 3.7366-0.00195313 3.63354 0.0214844 3.50574 0.0410156 3.37793 0.0605469 3.21509 0.0703125 3.01721 0.0703125 2.81934 0.0703125 2.65652 0.0605469 2.52878 0.0410156 2.40103 0.0214844 2.30005-0.00195313 2.22583-0.0292969 2.15161-0.0566406 2.09802-0.0957031 2.06506-0.146484 2.0321-0.197266 2.01562-0.25 2.01562-0.304688L2.01562-14.2969C2.01562-14.6094 2.10434-14.832 2.28177-14.9648 2.4592-15.0977 2.65271-15.1641 2.8623-15.1641L3.85419-15.1641C4.08795-15.1641 4.28348-15.1445 4.44077-15.1055 4.59805-15.0664 4.73917-15.002 4.86411-14.9121 4.98904-14.8223 5.10999-14.6973 5.22693-14.5371 5.34387-14.377 5.46655-14.1758 5.59497-13.9336L9.15125-7.27734C9.37024-6.87109 9.58167-6.47461 9.78552-6.08789 9.98938-5.70117 10.1857-5.32031 10.3745-4.94531 10.5633-4.57031 10.7501-4.20117 10.9351-3.83789 11.12-3.47461 11.3031-3.10937 11.4844-2.74219L11.4961-2.74219C11.4805-3.35937 11.4707-4.00195 11.4668-4.66992 11.4629-5.33789 11.4609-5.98047 11.4609-6.59766L11.4609-14.8242C11.4609-14.8789 11.4774-14.9297 11.5104-14.9766 11.5433-15.0234 11.599-15.0645 11.6773-15.0996 11.7556-15.1348 11.8586-15.1602 11.9865-15.1758 12.1143-15.1914 12.2812-15.1992 12.4872-15.1992 12.6686-15.1992 12.8253-15.1914 12.9572-15.1758 13.0891-15.1602 13.1921-15.1348 13.2664-15.0996 13.3406-15.0645 13.3942-15.0234 13.4271-14.9766 13.4601-14.9297 13.4766-14.8789 13.4766-14.8242ZM28.9062-13.1016C28.9062-12.9531 28.8984-12.8223 28.8828-12.709 28.8672-12.5957 28.8438-12.502 28.8125-12.4277 28.7812-12.3535 28.7422-12.3008 28.6953-12.2695 28.6484-12.2383 28.5977-12.2227 28.543-12.2227 28.4492-12.2227 28.293-12.2969 28.0742-12.4453 27.8555-12.5937 27.5625-12.7578 27.1953-12.9375 26.8281-13.1172 26.3887-13.2812 25.877-13.4297 25.3652-13.5781 24.7578-13.6523 24.0547-13.6523 23.2188-13.6523 22.4688-13.5 21.8047-13.1953 21.1406-12.8906 20.5781-12.4687 20.1172-11.9297 19.6562-11.3906 19.3027-10.75 19.0566-10.0078 18.8105-9.26562 18.6875-8.46094 18.6875-7.59375 18.6875-6.625 18.8223-5.76562 19.0918-5.01562 19.3613-4.26562 19.7344-3.63281 20.2109-3.11719 20.6875-2.60156 21.2559-2.21094 21.916-1.94531 22.5762-1.67969 23.3008-1.54687 24.0898-1.54688 24.5586-1.54687 25.0332-1.60352 25.5137-1.7168 25.9941-1.83008 26.4414-2 26.8555-2.22656L26.8555-6.64453 23.3398-6.64453C23.207-6.64453 23.1074-6.71094 23.041-6.84375 22.9746-6.97656 22.9414-7.18359 22.9414-7.46484 22.9414-7.61328 22.9492-7.74023 22.9648-7.8457 22.9805-7.95117 23.0059-8.03711 23.041-8.10352 23.0762-8.16992 23.1172-8.21875 23.1641-8.25 23.2109-8.28125 23.2695-8.29688 23.3398-8.29688L28.1562-8.29688C28.2422-8.29688 28.3281-8.28125 28.4141-8.25 28.5-8.21875 28.5781-8.17188 28.6484-8.10938 28.7188-8.04688 28.7734-7.96094 28.8125-7.85156 28.8516-7.74219 28.8711-7.61719 28.8711-7.47656L28.8711-1.69922C28.8711-1.49609 28.8359-1.32031 28.7656-1.17188 28.6953-1.02344 28.5469-0.892578 28.3203-0.779297 28.0938-0.666016 27.8008-0.542969 27.4414-0.410156 27.082-0.277344 26.7109-0.164062 26.3281-0.0703125 25.9453 0.0234375 25.5586 0.09375 25.168 0.140625 24.7773 0.1875 24.3906 0.210937 24.0078 0.210938 22.8359 0.210937 21.7891 0.0292969 20.8672-0.333984 19.9453-0.697266 19.166-1.21484 18.5293-1.88672 17.8926-2.55859 17.4062-3.36328 17.0703-4.30078 16.7344-5.23828 16.5664-6.28516 16.5664-7.44141 16.5664-8.64453 16.748-9.73438 17.1113-10.7109 17.4746-11.6875 17.9863-12.5195 18.6465-13.207 19.3066-13.8945 20.0996-14.4277 21.0254-14.8066 21.9512-15.1855 22.9766-15.375 24.1016-15.375 24.6797-15.375 25.2227-15.3242 25.7305-15.2227 26.2383-15.1211 26.6895-15.002 27.084-14.8652 27.4785-14.7285 27.8105-14.5801 28.0801-14.4199 28.3496-14.2598 28.5352-14.1289 28.6367-14.0273 28.7383-13.9258 28.8086-13.8086 28.8477-13.6758 28.8867-13.543 28.9062-13.3516 28.9062-13.1016ZM45.3854-7.75781C45.3854-6.53125 45.2409-5.42578 44.9518-4.44141 44.6628-3.45703 44.2311-2.61914 43.6569-1.92773 43.0827-1.23633 42.362-0.705078 41.4948-0.333984 40.6276 0.0371094 39.6159 0.222656 38.4596 0.222656 37.319 0.222656 36.3327 0.0527344 35.5007-0.287109 34.6686-0.626953 33.9811-1.12109 33.4382-1.76953 32.8952-2.41797 32.4909-3.22266 32.2253-4.18359 31.9596-5.14453 31.8268-6.25 31.8268-7.5 31.8268-8.69531 31.9714-9.78125 32.2604-10.7578 32.5495-11.7344 32.9831-12.5645 33.5612-13.248 34.1393-13.9316 34.862-14.459 35.7292-14.8301 36.5964-15.2012 37.6081-15.3867 38.7643-15.3867 39.8815-15.3867 40.8542-15.2187 41.6823-14.8828 42.5104-14.5469 43.1999-14.0566 43.7507-13.4121 44.3014-12.7676 44.7116-11.9707 44.9811-11.0215 45.2506-10.0723 45.3854-8.98438 45.3854-7.75781ZM43.2526-7.61719C43.2526-8.47656 43.1765-9.27539 43.0244-10.0137 42.8722-10.752 42.6186-11.3926 42.2636-11.9355 41.9085-12.4785 41.4345-12.9023 40.8416-13.207 40.2486-13.5117 39.5152-13.6641 38.6413-13.6641 37.7674-13.6641 37.0339-13.5 36.4409-13.1719 35.8479-12.8437 35.3661-12.4062 34.9955-11.8594 34.6249-11.3125 34.3596-10.6738 34.1996-9.94336 34.0396-9.21289 33.9596-8.44531 33.9596-7.64062 33.9596-6.75 34.0338-5.92969 34.182-5.17969 34.3303-4.42969 34.58-3.7832 34.9311-3.24023 35.2822-2.69727 35.7524-2.27539 36.3415-1.97461 36.9306-1.67383 37.6698-1.52344 38.5592-1.52344 39.441-1.52344 40.1822-1.6875 40.7831-2.01562 41.3839-2.34375 41.8677-2.78711 42.2344-3.3457 42.6011-3.9043 42.8624-4.55078 43.0185-5.28516 43.1746-6.01953 43.2526-6.79687 43.2526-7.61719ZM54.9141-3.16406C54.9141-2.625 54.8144-2.14453 54.6152-1.72266 54.416-1.30078 54.1328-0.945312 53.7656-0.65625 53.3984-0.367188 52.9609-0.148437 52.4531 0 51.9453 0.148437 51.3867 0.222656 50.7773 0.222656 50.4023 0.222656 50.0449 0.193359 49.7051 0.134766 49.3652 0.0761719 49.0605 0.00195312 48.791-0.0878906 48.5215-0.177734 48.293-0.271484 48.1055-0.369141 47.918-0.466797 47.7812-0.554688 47.6953-0.632812 47.6094-0.710938 47.5469-0.820312 47.5078-0.960938 47.4688-1.10156 47.4492-1.29297 47.4492-1.53516 47.4492-1.68359 47.457-1.80859 47.4727-1.91016 47.4883-2.01172 47.5078-2.09375 47.5312-2.15625 47.5547-2.21875 47.5879-2.26367 47.6309-2.29102 47.6738-2.31836 47.7227-2.33203 47.7773-2.33203 47.8633-2.33203 47.9902-2.2793 48.1582-2.17383 48.3262-2.06836 48.5332-1.95312 48.7793-1.82812 49.0254-1.70312 49.3164-1.58789 49.6523-1.48242 49.9883-1.37695 50.375-1.32422 50.8125-1.32422 51.1406-1.32422 51.4375-1.35938 51.7031-1.42969 51.9687-1.5 52.1992-1.60352 52.3945-1.74023 52.5898-1.87695 52.7402-2.05078 52.8457-2.26172 52.9512-2.47266 53.0039-2.72266 53.0039-3.01172 53.0039-3.30859 52.9277-3.55859 52.7754-3.76172 52.623-3.96484 52.4219-4.14453 52.1719-4.30078 51.9219-4.45703 51.6406-4.5957 51.3281-4.7168 51.0156-4.83789 50.6934-4.96484 50.3613-5.09766 50.0293-5.23047 49.7051-5.38086 49.3887-5.54883 49.0723-5.7168 48.7891-5.92188 48.5391-6.16406 48.2891-6.40625 48.0879-6.69531 47.9355-7.03125 47.7832-7.36719 47.707-7.76953 47.707-8.23828 47.707-8.65234 47.7871-9.04883 47.9473-9.42773 48.1074-9.80664 48.3477-10.1387 48.668-10.4238 48.9883-10.709 49.3887-10.9375 49.8691-11.1094 50.3496-11.2812 50.9102-11.3672 51.5508-11.3672 51.832-11.3672 52.1133-11.3438 52.3945-11.2969 52.6758-11.25 52.9297-11.1914 53.1562-11.1211 53.3828-11.0508 53.5762-10.9746 53.7363-10.8926 53.8965-10.8105 54.0176-10.7383 54.0996-10.6758 54.1816-10.6133 54.2363-10.5586 54.2637-10.5117 54.291-10.4648 54.3105-10.4121 54.3223-10.3535 54.334-10.2949 54.3457-10.2227 54.3574-10.1367 54.3691-10.0508 54.375-9.94531 54.375-9.82031 54.375-9.6875 54.3691-9.57227 54.3574-9.47461 54.3457-9.37695 54.3262-9.29688 54.2988-9.23438 54.2715-9.17188 54.2383-9.12695 54.1992-9.09961 54.1602-9.07227 54.1172-9.05859 54.0703-9.05859 54-9.05859 53.8984-9.10156 53.7656-9.1875 53.6328-9.27344 53.4609-9.36523 53.25-9.46289 53.0391-9.56055 52.791-9.65234 52.5059-9.73828 52.2207-9.82422 51.8945-9.86719 51.5273-9.86719 51.1992-9.86719 50.9102-9.83008 50.6602-9.75586 50.4102-9.68164 50.2051-9.57617 50.0449-9.43945 49.8848-9.30273 49.7637-9.14062 49.6816-8.95312 49.5996-8.76562 49.5586-8.5625 49.5586-8.34375 49.5586-8.03906 49.6367-7.7832 49.793-7.57617 49.9492-7.36914 50.1523-7.1875 50.4023-7.03125 50.6523-6.875 50.9375-6.73437 51.2578-6.60938 51.5781-6.48437 51.9043-6.35547 52.2363-6.22266 52.5684-6.08984 52.8965-5.94141 53.2207-5.77734 53.5449-5.61328 53.832-5.41406 54.082-5.17969 54.332-4.94531 54.5332-4.66406 54.6855-4.33594 54.8379-4.00781 54.9141-3.61719 54.9141-3.16406Z" transform="translate(17.2747 32)"/></g></g><text font-family="Calibri,Calibri_MSFontService,sans-serif" font-weight="400" font-size="24" transform="translate(121.578 543)">NGOs</text><path d="M322.5 627.5C322.5 594.915 374.211 568.5 438 568.5 501.789 568.5 553.5 594.915 553.5 627.5 553.5 660.085 501.789 686.5 438 686.5 374.211 686.5 322.5 660.085 322.5 627.5Z" stroke="#A9D18E" stroke-width="1.33333" stroke-miterlimit="8" fill="#C5E0B4" fill-rule="evenodd"/><g clip-path="url(#clip10)" filter="url(#fx2)" transform="translate(368 589)"><g clip-path="url(#clip11)"><path d="M12.1289-0.304688C12.1289-0.242187 12.1172-0.1875 12.0938-0.140625 12.0703-0.09375 12.0195-0.0546875 11.9414-0.0234375 11.8633 0.0078125 11.7539 0.03125 11.6133 0.046875 11.4727 0.0625 11.2852 0.0703125 11.0508 0.0703125 10.8477 0.0703125 10.6816 0.0625 10.5527 0.046875 10.4238 0.03125 10.3203 0.00585937 10.2422-0.0292969 10.1641-0.0644531 10.1035-0.113281 10.0605-0.175781 10.0176-0.238281 9.98047-0.316406 9.94922-0.410156L8.55469-3.98438C8.39062-4.39062 8.2207-4.76367 8.04492-5.10352 7.86914-5.44336 7.66016-5.73633 7.41797-5.98242 7.17578-6.22852 6.89062-6.41992 6.5625-6.55664 6.23437-6.69336 5.83984-6.76172 5.37891-6.76172L4.03125-6.76172 4.03125-0.304688C4.03125-0.242187 4.01367-0.1875 3.97852-0.140625 3.94336-0.09375 3.88867-0.0566406 3.81445-0.0292969 3.74023-0.00195313 3.63867 0.0214844 3.50977 0.0410156 3.38086 0.0605469 3.21875 0.0703125 3.02344 0.0703125 2.82812 0.0703125 2.66602 0.0605469 2.53711 0.0410156 2.4082 0.0214844 2.30469-0.00195313 2.22656-0.0292969 2.14844-0.0566406 2.09375-0.09375 2.0625-0.140625 2.03125-0.1875 2.01562-0.242187 2.01562-0.304688L2.01562-14.3438C2.01562-14.6484 2.0957-14.8613 2.25586-14.9824 2.41602-15.1035 2.58594-15.1641 2.76562-15.1641L5.98828-15.1641C6.37109-15.1641 6.68945-15.1543 6.94336-15.1348 7.19727-15.1152 7.42578-15.0937 7.62891-15.0703 8.21484-14.9687 8.73242-14.8086 9.18164-14.5898 9.63086-14.3711 10.0078-14.0937 10.3125-13.7578 10.6172-13.4219 10.8457-13.0371 10.998-12.6035 11.1504-12.1699 11.2266-11.6914 11.2266-11.168 11.2266-10.6602 11.1582-10.2051 11.0215-9.80273 10.8848-9.40039 10.6875-9.04492 10.4297-8.73633 10.1719-8.42773 9.86328-8.16016 9.50391-7.93359 9.14453-7.70703 8.74219-7.51562 8.29688-7.35938 8.54688-7.25 8.77344-7.11133 8.97656-6.94336 9.17969-6.77539 9.36914-6.57422 9.54492-6.33984 9.7207-6.10547 9.88672-5.83594 10.043-5.53125 10.1992-5.22656 10.3555-4.88281 10.5117-4.5L11.8711-1.16016C11.9805-0.878906 12.0508-0.681641 12.082-0.568359 12.1133-0.455078 12.1289-0.367187 12.1289-0.304688ZM9.09375-10.957C9.09375-11.5508 8.96094-12.0527 8.69531-12.4629 8.42969-12.873 7.98437-13.168 7.35938-13.3477 7.16406-13.4023 6.94336-13.4414 6.69727-13.4648 6.45117-13.4883 6.12891-13.5 5.73047-13.5L4.03125-13.5 4.03125-8.39062 6-8.39062C6.53125-8.39062 6.99023-8.45508 7.37695-8.58398 7.76367-8.71289 8.08594-8.89258 8.34375-9.12305 8.60156-9.35352 8.79102-9.625 8.91211-9.9375 9.0332-10.25 9.09375-10.5898 9.09375-10.957ZM23.373-6.02344C23.373-5.71875 23.2965-5.50195 23.1434-5.37305 22.9904-5.24414 22.8158-5.17969 22.6195-5.17969L15.6737-5.17969C15.6737-4.59375 15.7326-4.06641 15.8504-3.59766 15.9681-3.12891 16.1644-2.72656 16.4391-2.39062 16.7139-2.05469 17.0711-1.79687 17.5108-1.61719 17.9504-1.4375 18.4881-1.34766 19.124-1.34766 19.6264-1.34766 20.0739-1.38867 20.4664-1.4707 20.859-1.55273 21.1985-1.64453 21.4851-1.74609 21.7716-1.84766 22.0072-1.93945 22.1917-2.02148 22.3762-2.10352 22.5155-2.14453 22.6098-2.14453 22.6647-2.14453 22.7138-2.13086 22.7569-2.10352 22.8001-2.07617 22.8334-2.03516 22.857-1.98047 22.8805-1.92578 22.8982-1.84961 22.91-1.75195 22.9218-1.6543 22.9277-1.53516 22.9277-1.39453 22.9277-1.29297 22.9237-1.20508 22.9159-1.13086 22.9081-1.05664 22.8984-0.990234 22.8866-0.931641 22.8749-0.873047 22.8554-0.820312 22.828-0.773438 22.8007-0.726562 22.7655-0.681641 22.7226-0.638672 22.6796-0.595703 22.5527-0.525391 22.3417-0.427734 22.1308-0.330078 21.8573-0.234375 21.5214-0.140625 21.1855-0.046875 20.7968 0.0371094 20.3554 0.111328 19.914 0.185547 19.4433 0.222656 18.9433 0.222656 18.0761 0.222656 17.3163 0.101562 16.664-0.140625 16.0116-0.382812 15.4628-0.742188 15.0175-1.21875 14.5722-1.69531 14.2362-2.29297 14.0097-3.01172 13.7831-3.73047 13.6698-4.56641 13.6698-5.51953 13.6698-6.42578 13.787-7.24023 14.0214-7.96289 14.2558-8.68555 14.5937-9.29883 15.0351-9.80273 15.4765-10.3066 16.0097-10.6934 16.6347-10.9629 17.2597-11.2324 17.9589-11.3672 18.7323-11.3672 19.5605-11.3672 20.2655-11.2344 20.8476-10.9688 21.4296-10.7031 21.9081-10.3457 22.2831-9.89648 22.6581-9.44727 22.9335-8.91992 23.1093-8.31445 23.2851-7.70898 23.373-7.0625 23.373-6.375ZM21.4277-6.59766C21.4511-7.61328 21.2251-8.41016 20.7496-8.98828 20.2742-9.56641 19.5687-9.85547 18.6333-9.85547 18.1538-9.85547 17.7333-9.76562 17.3717-9.58594 17.0101-9.40625 16.7075-9.16797 16.4638-8.87109 16.22-8.57422 16.0314-8.22852 15.8978-7.83398 15.7642-7.43945 15.6895-7.02734 15.6737-6.59766ZM35.1855-10.3594C35.1855-10.0859 35.1484-9.88867 35.0741-9.76758 34.9999-9.64648 34.9042-9.58594 34.787-9.58594L33.2753-9.58594C33.5488-9.30469 33.7402-8.99414 33.8495-8.6543 33.9589-8.31445 34.0136-7.96094 34.0136-7.59375 34.0136-6.98437 33.9159-6.44531 33.7206-5.97656 33.5253-5.50781 33.246-5.11133 32.8827-4.78711 32.5195-4.46289 32.0878-4.21484 31.5878-4.04297 31.0878-3.87109 30.5331-3.78516 29.9237-3.78516 29.4941-3.78516 29.0859-3.8418 28.6991-3.95508 28.3124-4.06836 28.0136-4.21094 27.8027-4.38281 27.662-4.24219 27.5468-4.08203 27.457-3.90234 27.3671-3.72266 27.3222-3.51562 27.3222-3.28125 27.3222-3.00781 27.4491-2.78125 27.703-2.60156 27.957-2.42188 28.2948-2.32422 28.7167-2.30859L31.4706-2.19141C31.9941-2.17578 32.4745-2.10352 32.912-1.97461 33.3495-1.8457 33.7284-1.66211 34.0488-1.42383 34.3691-1.18555 34.6191-0.892578 34.7988-0.544922 34.9784-0.197266 35.0683 0.207031 35.0683 0.667969 35.0683 1.15234 34.9667 1.61328 34.7636 2.05078 34.5605 2.48828 34.2499 2.87305 33.832 3.20508 33.414 3.53711 32.8808 3.79883 32.2323 3.99023 31.5839 4.18164 30.8183 4.27734 29.9355 4.27734 29.0839 4.27734 28.3593 4.20508 27.7616 4.06055 27.164 3.91602 26.6737 3.71875 26.2909 3.46875 25.9081 3.21875 25.6308 2.91992 25.4589 2.57227 25.287 2.22461 25.2011 1.84766 25.2011 1.44141 25.2011 1.18359 25.2323 0.933594 25.2948 0.691406 25.3573 0.449219 25.453 0.21875 25.582 0 25.7109-0.21875 25.871-0.427734 26.0624-0.626953 26.2538-0.826172 26.4745-1.02344 26.7245-1.21875 26.3417-1.41406 26.0585-1.66016 25.8749-1.95703 25.6913-2.25391 25.5995-2.57422 25.5995-2.91797 25.5995-3.39453 25.6972-3.82031 25.8925-4.19531 26.0878-4.57031 26.33-4.90625 26.6191-5.20312 26.3769-5.49219 26.1855-5.81836 26.0448-6.18164 25.9042-6.54492 25.8339-6.98437 25.8339-7.5 25.8339-8.10156 25.9355-8.64062 26.1386-9.11719 26.3417-9.59375 26.623-9.99609 26.9823-10.3242 27.3417-10.6523 27.7734-10.9043 28.2773-11.0801 28.7812-11.2559 29.33-11.3438 29.9237-11.3438 30.2441-11.3438 30.5429-11.3262 30.8202-11.291 31.0976-11.2559 31.3573-11.207 31.5995-11.1445L34.787-11.1445C34.9198-11.1445 35.0195-11.0801 35.0859-10.9512 35.1523-10.8223 35.1855-10.625 35.1855-10.3594ZM32.162-7.58203C32.162-8.30078 31.9648-8.86133 31.5702-9.26367 31.1757-9.66602 30.6152-9.86719 29.8886-9.86719 29.5136-9.86719 29.1874-9.80469 28.9101-9.67969 28.6327-9.55469 28.4023-9.38281 28.2187-9.16406 28.0351-8.94531 27.8984-8.69336 27.8085-8.4082 27.7187-8.12305 27.6737-7.82422 27.6737-7.51172 27.6737-6.81641 27.871-6.26953 28.2655-5.87109 28.6601-5.47266 29.2128-5.27344 29.9237-5.27344 30.3066-5.27344 30.6386-5.33398 30.9198-5.45508 31.2011-5.57617 31.4335-5.74414 31.6171-5.95898 31.8007-6.17383 31.9374-6.42187 32.0273-6.70312 32.1171-6.98437 32.162-7.27734 32.162-7.58203ZM33.1347 0.773438C33.1347 0.320312 32.9491-0.0292969 32.578-0.275391 32.207-0.521484 31.705-0.652344 31.0722-0.667969L28.3417-0.761719C28.0917-0.566406 27.8866-0.380859 27.7265-0.205078 27.5663-0.0292969 27.4394 0.138672 27.3456 0.298828 27.2519 0.458984 27.1874 0.617188 27.1523 0.773438 27.1171 0.929687 27.0995 1.08984 27.0995 1.25391 27.0995 1.76172 27.3573 2.14648 27.873 2.4082 28.3886 2.66992 29.1073 2.80078 30.0292 2.80078 30.6152 2.80078 31.1054 2.74414 31.4999 2.63086 31.8945 2.51758 32.2128 2.36719 32.455 2.17969 32.6972 1.99219 32.871 1.77734 32.9765 1.53516 33.082 1.29297 33.1347 1.03906 33.1347 0.773438ZM46.7415-0.292969C46.7415-0.230469 46.7278-0.177734 46.7004-0.134766 46.6731-0.0917969 46.6243-0.0546875 46.554-0.0234375 46.4836 0.0078125 46.3918 0.03125 46.2786 0.046875 46.1653 0.0625 46.0266 0.0703125 45.8626 0.0703125 45.6829 0.0703125 45.5364 0.0625 45.4231 0.046875 45.3098 0.03125 45.22 0.0078125 45.1536-0.0234375 45.0872-0.0546875 45.0422-0.0917969 45.0188-0.134766 44.9954-0.177734 44.9836-0.230469 44.9836-0.292969L44.9836-1.6875C44.3821-1.02344 43.7883-0.539062 43.2024-0.234375 42.6165 0.0703125 42.0227 0.222656 41.4211 0.222656 40.718 0.222656 40.1262 0.105469 39.6458-0.128906 39.1653-0.363281 38.7766-0.681641 38.4797-1.08398 38.1829-1.48633 37.97-1.95508 37.8411-2.49023 37.7122-3.02539 37.6477-3.67578 37.6477-4.44141L37.6477-10.8398C37.6477-10.9023 37.6614-10.9551 37.6887-10.998 37.7161-11.041 37.7688-11.0801 37.8469-11.1152 37.925-11.1504 38.0266-11.1738 38.1516-11.1855 38.2766-11.1973 38.4329-11.2031 38.6204-11.2031 38.8079-11.2031 38.9641-11.1973 39.0891-11.1855 39.2141-11.1738 39.3137-11.1504 39.3879-11.1152 39.4622-11.0801 39.5149-11.041 39.5461-10.998 39.5774-10.9551 39.593-10.9023 39.593-10.8398L39.593-4.69922C39.593-4.08203 39.6379-3.58789 39.7278-3.2168 39.8176-2.8457 39.9543-2.5293 40.1379-2.26758 40.3215-2.00586 40.554-1.80273 40.8352-1.6582 41.1165-1.51367 41.4446-1.44141 41.8196-1.44141 42.304-1.44141 42.7864-1.61328 43.2668-1.95703 43.7473-2.30078 44.2571-2.80469 44.7961-3.46875L44.7961-10.8398C44.7961-10.9023 44.8098-10.9551 44.8372-10.998 44.8645-11.041 44.9172-11.0801 44.9954-11.1152 45.0735-11.1504 45.1731-11.1738 45.2942-11.1855 45.4153-11.1973 45.5735-11.2031 45.7688-11.2031 45.9563-11.2031 46.1125-11.1973 46.2376-11.1855 46.3625-11.1738 46.4602-11.1504 46.5305-11.1152 46.6008-11.0801 46.6536-11.041 46.6887-10.998 46.7239-10.9551 46.7415-10.9023 46.7415-10.8398ZM52.3066-0.292969C52.3066-0.230469 52.2909-0.177734 52.2597-0.134766 52.2284-0.0917969 52.1777-0.0546875 52.1073-0.0234375 52.037 0.0078125 51.9394 0.03125 51.8144 0.046875 51.6894 0.0625 51.5292 0.0703125 51.3339 0.0703125 51.1464 0.0703125 50.9902 0.0625 50.8652 0.046875 50.7402 0.03125 50.6405 0.0078125 50.5663-0.0234375 50.4921-0.0546875 50.4413-0.0917969 50.414-0.134766 50.3866-0.177734 50.373-0.230469 50.373-0.292969L50.373-15.9492C50.373-16.0117 50.3866-16.0664 50.414-16.1133 50.4413-16.1602 50.4921-16.1992 50.5663-16.2305 50.6405-16.2617 50.7402-16.2852 50.8652-16.3008 50.9902-16.3164 51.1464-16.3242 51.3339-16.3242 51.5292-16.3242 51.6894-16.3164 51.8144-16.3008 51.9394-16.2852 52.037-16.2617 52.1073-16.2305 52.1777-16.1992 52.2284-16.1602 52.2597-16.1133 52.2909-16.0664 52.3066-16.0117 52.3066-15.9492ZM63.8183-0.28125C63.8183-0.1875 63.787-0.117187 63.7245-0.0703125 63.662-0.0234375 63.5761 0.0117188 63.4667 0.0351562 63.3573 0.0585937 63.1972 0.0703125 62.9863 0.0703125 62.7831 0.0703125 62.621 0.0585937 62.4999 0.0351562 62.3788 0.0117188 62.2909-0.0234375 62.2363-0.0703125 62.1816-0.117187 62.1542-0.1875 62.1542-0.28125L62.1542-1.33594C61.6933-0.84375 61.1796-0.460937 60.6132-0.1875 60.0468 0.0859375 59.4472 0.222656 58.8144 0.222656 58.2597 0.222656 57.7577 0.150391 57.3085 0.00585938 56.8593-0.138672 56.4765-0.347656 56.1601-0.621094 55.8437-0.894531 55.5976-1.23047 55.4218-1.62891 55.246-2.02734 55.1581-2.48047 55.1581-2.98828 55.1581-3.58203 55.2792-4.09766 55.5214-4.53516 55.7636-4.97266 56.1113-5.33594 56.5644-5.625 57.0175-5.91406 57.5722-6.13086 58.2284-6.27539 58.8847-6.41992 59.623-6.49219 60.4433-6.49219L61.8964-6.49219 61.8964-7.3125C61.8964-7.71875 61.8534-8.07812 61.7675-8.39062 61.6816-8.70312 61.5429-8.96289 61.3515-9.16992 61.1601-9.37695 60.912-9.5332 60.6073-9.63867 60.3027-9.74414 59.9277-9.79688 59.4823-9.79688 59.0058-9.79688 58.578-9.74023 58.1991-9.62695 57.8202-9.51367 57.4882-9.38867 57.203-9.25195 56.9179-9.11523 56.6796-8.99023 56.4882-8.87695 56.2968-8.76367 56.1542-8.70703 56.0605-8.70703 55.998-8.70703 55.9433-8.72266 55.8964-8.75391 55.8495-8.78516 55.8085-8.83203 55.7734-8.89453 55.7382-8.95703 55.7128-9.03711 55.6972-9.13477 55.6816-9.23242 55.6738-9.33984 55.6738-9.45703 55.6738-9.65234 55.6874-9.80664 55.7148-9.91992 55.7421-10.0332 55.8085-10.1406 55.914-10.2422 56.0195-10.3438 56.2011-10.4629 56.4589-10.5996 56.7167-10.7363 57.0136-10.8613 57.3495-10.9746 57.6855-11.0879 58.0527-11.1816 58.4511-11.2559 58.8495-11.3301 59.2519-11.3672 59.6581-11.3672 60.4159-11.3672 61.0605-11.2812 61.5917-11.1094 62.123-10.9375 62.5527-10.6855 62.8808-10.3535 63.2089-10.0215 63.4472-9.60938 63.5956-9.11719 63.7441-8.625 63.8183-8.05078 63.8183-7.39453ZM61.8964-5.09766 60.2441-5.09766C59.7128-5.09766 59.2519-5.05273 58.8613-4.96289 58.4706-4.87305 58.1464-4.74023 57.8886-4.56445 57.6308-4.38867 57.4413-4.17773 57.3202-3.93164 57.1991-3.68555 57.1386-3.40234 57.1386-3.08203 57.1386-2.53516 57.3124-2.09961 57.6601-1.77539 58.0077-1.45117 58.4941-1.28906 59.1191-1.28906 59.6269-1.28906 60.0976-1.41797 60.5312-1.67578 60.9648-1.93359 61.4198-2.32812 61.8964-2.85938ZM72.6373-1.06641C72.6373-0.839844 72.6217-0.660156 72.5905-0.527344 72.5592-0.394531 72.5123-0.296875 72.4498-0.234375 72.3873-0.171875 72.2936-0.113281 72.1686-0.0585938 72.0436-0.00390625 71.901 0.0410156 71.7409 0.0761719 71.5807 0.111328 71.4108 0.140625 71.2311 0.164062 71.0514 0.1875 70.8717 0.199219 70.692 0.199219 70.1452 0.199219 69.6764 0.126953 69.2858-0.0175781 68.8952-0.162109 68.5748-0.380859 68.3248-0.673828 68.0748-0.966797 67.8932-1.33789 67.7799-1.78711 67.6666-2.23633 67.61-2.76562 67.61-3.375L67.61-9.53906 66.1334-9.53906C66.0163-9.53906 65.9225-9.60156 65.8522-9.72656 65.7819-9.85156 65.7467-10.0547 65.7467-10.3359 65.7467-10.4844 65.7565-10.6094 65.776-10.7109 65.7955-10.8125 65.8209-10.8965 65.8522-10.9629 65.8834-11.0293 65.9245-11.0762 65.9752-11.1035 66.026-11.1309 66.0827-11.1445 66.1452-11.1445L67.61-11.1445 67.61-13.6523C67.61-13.707 67.6237-13.7578 67.651-13.8047 67.6784-13.8516 67.7291-13.8926 67.8034-13.9277 67.8776-13.9629 67.9772-13.9883 68.1022-14.0039 68.2272-14.0195 68.3834-14.0273 68.5709-14.0273 68.7663-14.0273 68.9264-14.0195 69.0514-14.0039 69.1764-13.9883 69.2741-13.9629 69.3444-13.9277 69.4147-13.8926 69.4655-13.8516 69.4967-13.8047 69.528-13.7578 69.5436-13.707 69.5436-13.6523L69.5436-11.1445 72.2506-11.1445C72.3131-11.1445 72.3678-11.1309 72.4147-11.1035 72.4616-11.0762 72.5026-11.0293 72.5377-10.9629 72.5729-10.8965 72.5983-10.8125 72.6139-10.7109 72.6295-10.6094 72.6373-10.4844 72.6373-10.3359 72.6373-10.0547 72.6022-9.85156 72.5319-9.72656 72.4616-9.60156 72.3678-9.53906 72.2506-9.53906L69.5436-9.53906 69.5436-3.65625C69.5436-2.92969 69.651-2.38086 69.8659-2.00977 70.0807-1.63867 70.4655-1.45312 71.0202-1.45312 71.1998-1.45312 71.36-1.4707 71.5006-1.50586 71.6413-1.54102 71.7663-1.57812 71.8756-1.61719 71.985-1.65625 72.0788-1.69336 72.1569-1.72852 72.235-1.76367 72.3053-1.78125 72.3678-1.78125 72.4069-1.78125 72.444-1.77148 72.4791-1.75195 72.5143-1.73242 72.5416-1.69531 72.5612-1.64062 72.5807-1.58594 72.5983-1.51172 72.6139-1.41797 72.6295-1.32422 72.6373-1.20703 72.6373-1.06641ZM84.7282-5.68359C84.7282-4.82422 84.6149-4.0332 84.3884-3.31055 84.1618-2.58789 83.8239-1.96484 83.3747-1.44141 82.9255-0.917969 82.363-0.509766 81.6872-0.216797 81.0114 0.0761719 80.2282 0.222656 79.3376 0.222656 78.4704 0.222656 77.7146 0.09375 77.07-0.164062 76.4255-0.421875 75.8884-0.796875 75.4587-1.28906 75.029-1.78125 74.7087-2.37891 74.4978-3.08203 74.2868-3.78516 74.1814-4.58203 74.1814-5.47266 74.1814-6.33203 74.2927-7.12305 74.5153-7.8457 74.738-8.56836 75.0739-9.19141 75.5232-9.71484 75.9724-10.2383 76.5329-10.6445 77.2048-10.9336 77.8767-11.2227 78.6618-11.3672 79.5603-11.3672 80.4274-11.3672 81.1833-11.2383 81.8278-10.9805 82.4724-10.7227 83.0095-10.3477 83.4392-9.85547 83.8689-9.36328 84.1911-8.76562 84.406-8.0625 84.6208-7.35937 84.7282-6.56641 84.7282-5.68359ZM82.7243-5.55469C82.7243-6.125 82.6711-6.66406 82.5647-7.17188 82.4582-7.67969 82.2828-8.125 82.0384-8.50781 81.794-8.89062 81.4629-9.19336 81.0452-9.41602 80.6274-9.63867 80.1071-9.75 79.4843-9.75 78.9088-9.75 78.4142-9.64844 78.0003-9.44531 77.5864-9.24219 77.2455-8.95508 76.9775-8.58398 76.7095-8.21289 76.5104-7.77344 76.3804-7.26562 76.2503-6.75781 76.1853-6.20312 76.1853-5.60156 76.1853-5.02344 76.2385-4.48047 76.3449-3.97266 76.4514-3.46484 76.6287-3.02148 76.877-2.64258 77.1253-2.26367 77.4584-1.96289 77.8762-1.74023 78.2939-1.51758 78.8142-1.40625 79.437-1.40625 80.0047-1.40625 80.4974-1.50781 80.9152-1.71094 81.3329-1.91406 81.6758-2.19922 81.9438-2.56641 82.2118-2.93359 82.4089-3.37109 82.5351-3.87891 82.6612-4.38672 82.7243-4.94531 82.7243-5.55469ZM93.7504-10.1484C93.7504-9.97656 93.7465-9.83203 93.7386-9.71484 93.7308-9.59766 93.7152-9.50586 93.6918-9.43945 93.6683-9.37305 93.639-9.32227 93.6039-9.28711 93.5687-9.25195 93.5199-9.23438 93.4574-9.23438 93.3949-9.23438 93.3187-9.25195 93.2289-9.28711 93.139-9.32227 93.0375-9.35742 92.9242-9.39258 92.8109-9.42773 92.684-9.46094 92.5433-9.49219 92.4027-9.52344 92.2504-9.53906 92.0863-9.53906 91.891-9.53906 91.6996-9.5 91.5121-9.42188 91.3246-9.34375 91.1273-9.21484 90.9203-9.03516 90.7133-8.85547 90.4965-8.61719 90.2699-8.32031 90.0433-8.02344 89.7933-7.66016 89.5199-7.23047L89.5199-0.292969C89.5199-0.230469 89.5043-0.177734 89.473-0.134766 89.4418-0.0917969 89.391-0.0546875 89.3207-0.0234375 89.2504 0.0078125 89.1527 0.03125 89.0277 0.046875 88.9027 0.0625 88.7426 0.0703125 88.5472 0.0703125 88.3597 0.0703125 88.2035 0.0625 88.0785 0.046875 87.9535 0.03125 87.8539 0.0078125 87.7797-0.0234375 87.7054-0.0546875 87.6547-0.0917969 87.6273-0.134766 87.6-0.177734 87.5863-0.230469 87.5863-0.292969L87.5863-10.8398C87.5863-10.9023 87.598-10.9551 87.6215-10.998 87.6449-11.041 87.6918-11.0801 87.7621-11.1152 87.8324-11.1504 87.9222-11.1738 88.0316-11.1855 88.141-11.1973 88.2855-11.2031 88.4652-11.2031 88.6371-11.2031 88.7797-11.1973 88.8929-11.1855 89.0062-11.1738 89.0941-11.1504 89.1566-11.1152 89.2191-11.0801 89.264-11.041 89.2914-10.998 89.3187-10.9551 89.3324-10.9023 89.3324-10.8398L89.3324-9.30469C89.6215-9.72656 89.8929-10.0703 90.1469-10.3359 90.4008-10.6016 90.641-10.8105 90.8676-10.9629 91.0941-11.1152 91.3187-11.2207 91.5414-11.2793 91.764-11.3379 91.9886-11.3672 92.2152-11.3672 92.3168-11.3672 92.432-11.3613 92.5609-11.3496 92.6898-11.3379 92.8246-11.3164 92.9652-11.2852 93.1058-11.2539 93.2328-11.2188 93.3461-11.1797 93.4594-11.1406 93.5394-11.1016 93.5863-11.0625 93.6332-11.0234 93.6644-10.9863 93.6801-10.9512 93.6957-10.916 93.7094-10.8711 93.7211-10.8164 93.7328-10.7617 93.7406-10.6816 93.7445-10.5762 93.7484-10.4707 93.7504-10.3281 93.7504-10.1484ZM100.844 0 99.4381 3.87891C99.3912 4.00391 99.2721 4.09961 99.0807 4.16602 98.8892 4.23242 98.5982 4.26562 98.2076 4.26562 98.0045 4.26562 97.8404 4.25586 97.7154 4.23633 97.5904 4.2168 97.4947 4.18359 97.4283 4.13672 97.3619 4.08984 97.3248 4.02734 97.317 3.94922 97.3092 3.87109 97.3287 3.77734 97.3756 3.66797L98.8287 0C98.7584-0.03125 98.692-0.0820312 98.6295-0.152344 98.567-0.222656 98.524-0.296875 98.5006-0.375L94.7389-10.4531C94.6764-10.6172 94.6451-10.7461 94.6451-10.8398 94.6451-10.9336 94.6764-11.0078 94.7389-11.0625 94.8014-11.1172 94.9029-11.1543 95.0435-11.1738 95.1842-11.1934 95.3717-11.2031 95.606-11.2031 95.8404-11.2031 96.024-11.1973 96.1568-11.1855 96.2896-11.1738 96.3951-11.1523 96.4732-11.1211 96.5514-11.0898 96.608-11.0449 96.6432-10.9863 96.6783-10.9277 96.7154-10.8477 96.7545-10.7461L99.7662-2.28516 99.8014-2.28516 102.708-10.793C102.754-10.9414 102.811-11.0371 102.878-11.0801 102.944-11.123 103.044-11.1543 103.176-11.1738 103.309-11.1934 103.501-11.2031 103.751-11.2031 103.969-11.2031 104.149-11.1934 104.29-11.1738 104.43-11.1543 104.534-11.1172 104.6-11.0625 104.667-11.0078 104.7-10.9336 104.7-10.8398 104.7-10.7461 104.676-10.6289 104.629-10.4883Z" transform="translate(17.3633 32)"/></g></g><text font-family="Calibri,Calibri_MSFontService,sans-serif" font-weight="400" font-size="24" transform="translate(384.667 620)">Regulatory </text><g clip-path="url(#clip12)" filter="url(#fx3)" transform="translate(377 618)"><g clip-path="url(#clip13)"><path d="M13.3711-0.714844C13.4336-0.542969 13.4668-0.404297 13.4707-0.298828 13.4746-0.193359 13.4453-0.113281 13.3828-0.0585938 13.3203-0.00390625 13.2168 0.03125 13.0723 0.046875 12.9277 0.0625 12.7344 0.0703125 12.4922 0.0703125 12.25 0.0703125 12.0566 0.0644531 11.9121 0.0527344 11.7676 0.0410156 11.6582 0.0214844 11.584-0.00585938 11.5098-0.0332031 11.4551-0.0703125 11.4199-0.117188 11.3848-0.164062 11.3516-0.222656 11.3203-0.292969L10.0195-3.98438 3.71484-3.98438 2.47266-0.339844C2.44922-0.269531 2.41797-0.208984 2.37891-0.158203 2.33984-0.107422 2.2832-0.0644531 2.20898-0.0292969 2.13477 0.00585937 2.0293 0.03125 1.89258 0.046875 1.75586 0.0625 1.57812 0.0703125 1.35938 0.0703125 1.13281 0.0703125 0.947266 0.0605469 0.802734 0.0410156 0.658203 0.0214844 0.556641-0.015625 0.498047-0.0703125 0.439453-0.125 0.412109-0.205078 0.416016-0.310547 0.419922-0.416016 0.453125-0.554688 0.515625-0.726562L5.60156-14.8125C5.63281-14.8984 5.67383-14.9687 5.72461-15.0234 5.77539-15.0781 5.84961-15.1211 5.94727-15.1523 6.04492-15.1836 6.16992-15.2051 6.32227-15.2168 6.47461-15.2285 6.66797-15.2344 6.90234-15.2344 7.15234-15.2344 7.35937-15.2285 7.52344-15.2168 7.6875-15.2051 7.82031-15.1836 7.92188-15.1523 8.02344-15.1211 8.10156-15.0762 8.15625-15.0176 8.21094-14.959 8.25391-14.8867 8.28516-14.8008ZM6.84375-13.1484 6.83203-13.1484 4.21875-5.58984 9.49219-5.58984ZM24.4388-10.3594C24.4388-10.0859 24.4017-9.88867 24.3275-9.76758 24.2533-9.64648 24.1576-9.58594 24.0404-9.58594L22.5286-9.58594C22.8021-9.30469 22.9935-8.99414 23.1029-8.6543 23.2122-8.31445 23.2669-7.96094 23.2669-7.59375 23.2669-6.98437 23.1693-6.44531 22.974-5.97656 22.7786-5.50781 22.4993-5.11133 22.1361-4.78711 21.7728-4.46289 21.3411-4.21484 20.8411-4.04297 20.3411-3.87109 19.7865-3.78516 19.1771-3.78516 18.7474-3.78516 18.3392-3.8418 17.9525-3.95508 17.5658-4.06836 17.2669-4.21094 17.056-4.38281 16.9154-4.24219 16.8001-4.08203 16.7103-3.90234 16.6204-3.72266 16.5755-3.51562 16.5755-3.28125 16.5755-3.00781 16.7025-2.78125 16.9564-2.60156 17.2103-2.42188 17.5482-2.32422 17.9701-2.30859L20.724-2.19141C21.2474-2.17578 21.7279-2.10352 22.1654-1.97461 22.6029-1.8457 22.9818-1.66211 23.3021-1.42383 23.6224-1.18555 23.8724-0.892578 24.0521-0.544922 24.2318-0.197266 24.3216 0.207031 24.3216 0.667969 24.3216 1.15234 24.2201 1.61328 24.0169 2.05078 23.8138 2.48828 23.5033 2.87305 23.0853 3.20508 22.6673 3.53711 22.1341 3.79883 21.4857 3.99023 20.8372 4.18164 20.0716 4.27734 19.1888 4.27734 18.3372 4.27734 17.6126 4.20508 17.015 4.06055 16.4173 3.91602 15.9271 3.71875 15.5443 3.46875 15.1615 3.21875 14.8841 2.91992 14.7122 2.57227 14.5404 2.22461 14.4544 1.84766 14.4544 1.44141 14.4544 1.18359 14.4857 0.933594 14.5482 0.691406 14.6107 0.449219 14.7064 0.21875 14.8353 0 14.9642-0.21875 15.1243-0.427734 15.3158-0.626953 15.5072-0.826172 15.7279-1.02344 15.9779-1.21875 15.5951-1.41406 15.3118-1.66016 15.1283-1.95703 14.9447-2.25391 14.8529-2.57422 14.8529-2.91797 14.8529-3.39453 14.9505-3.82031 15.1458-4.19531 15.3411-4.57031 15.5833-4.90625 15.8724-5.20312 15.6302-5.49219 15.4388-5.81836 15.2982-6.18164 15.1576-6.54492 15.0872-6.98437 15.0872-7.5 15.0872-8.10156 15.1888-8.64062 15.3919-9.11719 15.5951-9.59375 15.8763-9.99609 16.2357-10.3242 16.5951-10.6523 17.0267-10.9043 17.5306-11.0801 18.0345-11.2559 18.5833-11.3438 19.1771-11.3438 19.4974-11.3438 19.7962-11.3262 20.0736-11.291 20.3509-11.2559 20.6107-11.207 20.8529-11.1445L24.0404-11.1445C24.1732-11.1445 24.2728-11.0801 24.3392-10.9512 24.4056-10.8223 24.4388-10.625 24.4388-10.3594ZM21.4154-7.58203C21.4154-8.30078 21.2181-8.86133 20.8236-9.26367 20.429-9.66602 19.8685-9.86719 19.1419-9.86719 18.7669-9.86719 18.4408-9.80469 18.1634-9.67969 17.8861-9.55469 17.6556-9.38281 17.472-9.16406 17.2884-8.94531 17.1517-8.69336 17.0618-8.4082 16.972-8.12305 16.9271-7.82422 16.9271-7.51172 16.9271-6.81641 17.1243-6.26953 17.5189-5.87109 17.9134-5.47266 18.4661-5.27344 19.1771-5.27344 19.5599-5.27344 19.8919-5.33398 20.1732-5.45508 20.4544-5.57617 20.6868-5.74414 20.8704-5.95898 21.054-6.17383 21.1908-6.42187 21.2806-6.70312 21.3704-6.98437 21.4154-7.27734 21.4154-7.58203ZM22.388 0.773438C22.388 0.320312 22.2025-0.0292969 21.8314-0.275391 21.4603-0.521484 20.9583-0.652344 20.3255-0.667969L17.5951-0.761719C17.3451-0.566406 17.14-0.380859 16.9798-0.205078 16.8197-0.0292969 16.6927 0.138672 16.599 0.298828 16.5052 0.458984 16.4408 0.617188 16.4056 0.773438 16.3704 0.929687 16.3529 1.08984 16.3529 1.25391 16.3529 1.76172 16.6107 2.14648 17.1263 2.4082 17.6419 2.66992 18.3607 2.80078 19.2826 2.80078 19.8685 2.80078 20.3587 2.74414 20.7533 2.63086 21.1478 2.51758 21.4661 2.36719 21.7083 2.17969 21.9505 1.99219 22.1243 1.77734 22.2298 1.53516 22.3353 1.29297 22.388 1.03906 22.388 0.773438ZM35.7596-6.02344C35.7596-5.71875 35.6831-5.50195 35.5301-5.37305 35.3771-5.24414 35.2024-5.17969 35.0062-5.17969L28.0604-5.17969C28.0604-4.59375 28.1193-4.06641 28.237-3.59766 28.3548-3.12891 28.551-2.72656 28.8258-2.39062 29.1006-2.05469 29.4578-1.79687 29.8974-1.61719 30.3371-1.4375 30.8748-1.34766 31.5107-1.34766 32.0131-1.34766 32.4606-1.38867 32.8531-1.4707 33.2456-1.55273 33.5852-1.64453 33.8717-1.74609 34.1583-1.84766 34.3938-1.93945 34.5783-2.02148 34.7628-2.10352 34.9022-2.14453 34.9965-2.14453 35.0514-2.14453 35.1004-2.13086 35.1436-2.10352 35.1867-2.07617 35.2201-2.03516 35.2436-1.98047 35.2672-1.92578 35.2849-1.84961 35.2967-1.75195 35.3084-1.6543 35.3143-1.53516 35.3143-1.39453 35.3143-1.29297 35.3104-1.20508 35.3026-1.13086 35.2948-1.05664 35.285-0.990234 35.2733-0.931641 35.2616-0.873047 35.2421-0.820312 35.2147-0.773438 35.1874-0.726562 35.1522-0.681641 35.1092-0.638672 35.0663-0.595703 34.9393-0.525391 34.7284-0.427734 34.5174-0.330078 34.244-0.234375 33.9081-0.140625 33.5721-0.046875 33.1835 0.0371094 32.7421 0.111328 32.3007 0.185547 31.8299 0.222656 31.3299 0.222656 30.4628 0.222656 29.703 0.101562 29.0507-0.140625 28.3983-0.382812 27.8495-0.742188 27.4042-1.21875 26.9589-1.69531 26.6229-2.29297 26.3964-3.01172 26.1698-3.73047 26.0565-4.56641 26.0565-5.51953 26.0565-6.42578 26.1737-7.24023 26.4081-7.96289 26.6424-8.68555 26.9803-9.29883 27.4217-9.80273 27.8632-10.3066 28.3964-10.6934 29.0214-10.9629 29.6464-11.2324 30.3456-11.3672 31.119-11.3672 31.9471-11.3672 32.6522-11.2344 33.2342-10.9688 33.8163-10.7031 34.2948-10.3457 34.6698-9.89648 35.0448-9.44727 35.3202-8.91992 35.496-8.31445 35.6717-7.70898 35.7596-7.0625 35.7596-6.375ZM33.8143-6.59766C33.8378-7.61328 33.6117-8.41016 33.1363-8.98828 32.6608-9.56641 31.9554-9.85547 31.02-9.85547 30.5405-9.85547 30.1199-9.76562 29.7584-9.58594 29.3968-9.40625 29.0941-9.16797 28.8504-8.87109 28.6067-8.57422 28.4181-8.22852 28.2844-7.83398 28.1508-7.43945 28.0762-7.02734 28.0604-6.59766ZM47.8417-0.292969C47.8417-0.230469 47.826-0.177734 47.7948-0.134766 47.7635-0.0917969 47.7128-0.0546875 47.6424-0.0234375 47.5721 0.0078125 47.4745 0.03125 47.3495 0.046875 47.2245 0.0625 47.0682 0.0703125 46.8807 0.0703125 46.6854 0.0703125 46.5253 0.0625 46.4003 0.046875 46.2753 0.03125 46.1776 0.0078125 46.1073-0.0234375 46.037-0.0546875 45.9862-0.0917969 45.9549-0.134766 45.9237-0.177734 45.9081-0.230469 45.9081-0.292969L45.9081-6.46875C45.9081-7.07031 45.8612-7.55469 45.7674-7.92188 45.6737-8.28906 45.537-8.60547 45.3573-8.87109 45.1776-9.13672 44.9452-9.33984 44.66-9.48047 44.3749-9.62109 44.0448-9.69141 43.6698-9.69141 43.1854-9.69141 42.701-9.51953 42.2167-9.17578 41.7323-8.83203 41.2245-8.32812 40.6932-7.66406L40.6932-0.292969C40.6932-0.230469 40.6776-0.177734 40.6464-0.134766 40.6151-0.0917969 40.5643-0.0546875 40.494-0.0234375 40.4237 0.0078125 40.326 0.03125 40.201 0.046875 40.076 0.0625 39.9159 0.0703125 39.7206 0.0703125 39.5331 0.0703125 39.3768 0.0625 39.2518 0.046875 39.1268 0.03125 39.0272 0.0078125 38.953-0.0234375 38.8788-0.0546875 38.828-0.0917969 38.8007-0.134766 38.7733-0.177734 38.7596-0.230469 38.7596-0.292969L38.7596-10.8398C38.7596-10.9023 38.7714-10.9551 38.7948-10.998 38.8182-11.041 38.8651-11.0801 38.9354-11.1152 39.0057-11.1504 39.0956-11.1738 39.2049-11.1855 39.3143-11.1973 39.4589-11.2031 39.6385-11.2031 39.8104-11.2031 39.953-11.1973 40.0663-11.1855 40.1796-11.1738 40.2674-11.1504 40.3299-11.1152 40.3924-11.0801 40.4374-11.041 40.4647-10.998 40.4921-10.9551 40.5057-10.9023 40.5057-10.8398L40.5057-9.44531C41.0995-10.1094 41.6913-10.5957 42.2811-10.9043 42.871-11.2129 43.4667-11.3672 44.0682-11.3672 44.7714-11.3672 45.3632-11.248 45.8436-11.0098 46.3241-10.7715 46.7128-10.4531 47.0096-10.0547 47.3065-9.65625 47.5194-9.18945 47.6483-8.6543 47.7772-8.11914 47.8417-7.47656 47.8417-6.72656ZM59.0083-1.89844C59.0083-1.76562 59.0044-1.65039 58.9966-1.55273 58.9888-1.45508 58.9751-1.37305 58.9556-1.30664 58.9361-1.24023 58.9126-1.18164 58.8853-1.13086 58.8579-1.08008 58.7954-1.00586 58.6978-0.908203 58.6001-0.810547 58.4341-0.689453 58.1997-0.544922 57.9654-0.400391 57.7017-0.271484 57.4087-0.158203 57.1158-0.0449219 56.7974 0.046875 56.4536 0.117188 56.1099 0.1875 55.7544 0.222656 55.3872 0.222656 54.6294 0.222656 53.9576 0.0976562 53.3716-0.152344 52.7857-0.402344 52.2954-0.767578 51.9009-1.24805 51.5064-1.72852 51.2056-2.31836 50.9986-3.01758 50.7915-3.7168 50.688-4.52344 50.688-5.4375 50.688-6.47656 50.815-7.36914 51.0689-8.11523 51.3228-8.86133 51.6704-9.47266 52.1119-9.94922 52.5533-10.4258 53.0728-10.7793 53.6704-11.0098 54.2681-11.2402 54.9146-11.3555 55.6099-11.3555 55.9458-11.3555 56.272-11.3242 56.5884-11.2617 56.9048-11.1992 57.1958-11.1172 57.4615-11.0156 57.7271-10.9141 57.9634-10.7969 58.1704-10.6641 58.3775-10.5312 58.5279-10.418 58.6216-10.3242 58.7154-10.2305 58.7798-10.1562 58.815-10.1016 58.8501-10.0469 58.8794-9.98242 58.9029-9.9082 58.9263-9.83398 58.9419-9.75 58.9497-9.65625 58.9576-9.5625 58.9615-9.44531 58.9615-9.30469 58.9615-9 58.9263-8.78711 58.856-8.66602 58.7857-8.54492 58.6997-8.48438 58.5982-8.48438 58.481-8.48438 58.3462-8.54883 58.1939-8.67773 58.0415-8.80664 57.8482-8.94922 57.6138-9.10547 57.3794-9.26172 57.0962-9.4043 56.7642-9.5332 56.4322-9.66211 56.0396-9.72656 55.5865-9.72656 54.6568-9.72656 53.9439-9.36914 53.4478-8.6543 52.9517-7.93945 52.7036-6.90234 52.7036-5.54297 52.7036-4.86328 52.7681-4.26758 52.897-3.75586 53.0259-3.24414 53.2154-2.81641 53.4654-2.47266 53.7154-2.12891 54.022-1.87305 54.3853-1.70508 54.7486-1.53711 55.1646-1.45312 55.6333-1.45312 56.0786-1.45312 56.4693-1.52344 56.8052-1.66406 57.1411-1.80469 57.4322-1.95898 57.6783-2.12695 57.9243-2.29492 58.1314-2.44727 58.2994-2.58398 58.4673-2.7207 58.5982-2.78906 58.6919-2.78906 58.7466-2.78906 58.7935-2.77344 58.8326-2.74219 58.8716-2.71094 58.9048-2.6582 58.9322-2.58398 58.9595-2.50977 58.979-2.41602 58.9908-2.30273 59.0025-2.18945 59.0083-2.05469 59.0083-1.89844ZM63.5266-0.292969C63.5266-0.230469 63.5109-0.177734 63.4797-0.134766 63.4484-0.0917969 63.3977-0.0546875 63.3273-0.0234375 63.257 0.0078125 63.1594 0.03125 63.0344 0.046875 62.9094 0.0625 62.7492 0.0703125 62.5539 0.0703125 62.3664 0.0703125 62.2102 0.0625 62.0852 0.046875 61.9602 0.03125 61.8605 0.0078125 61.7863-0.0234375 61.7121-0.0546875 61.6613-0.0917969 61.634-0.134766 61.6066-0.177734 61.593-0.230469 61.593-0.292969L61.593-10.8398C61.593-10.8945 61.6066-10.9453 61.634-10.9922 61.6613-11.0391 61.7121-11.0781 61.7863-11.1094 61.8605-11.1406 61.9602-11.1641 62.0852-11.1797 62.2102-11.1953 62.3664-11.2031 62.5539-11.2031 62.7492-11.2031 62.9094-11.1953 63.0344-11.1797 63.1594-11.1641 63.257-11.1406 63.3273-11.1094 63.3977-11.0781 63.4484-11.0391 63.4797-10.9922 63.5109-10.9453 63.5266-10.8945 63.5266-10.8398ZM63.7492-14.4023C63.7492-13.9492 63.6633-13.6406 63.4914-13.4766 63.3195-13.3125 63.0031-13.2305 62.5422-13.2305 62.0891-13.2305 61.7785-13.3105 61.6105-13.4707 61.4426-13.6309 61.3586-13.9336 61.3586-14.3789 61.3586-14.832 61.4445-15.1406 61.6164-15.3047 61.7883-15.4687 62.1047-15.5508 62.5656-15.5508 63.0187-15.5508 63.3293-15.4707 63.4973-15.3105 63.6652-15.1504 63.7492-14.8477 63.7492-14.4023ZM76.093-6.02344C76.093-5.71875 76.0165-5.50195 75.8634-5.37305 75.7104-5.24414 75.5358-5.17969 75.3395-5.17969L68.3938-5.17969C68.3938-4.59375 68.4526-4.06641 68.5704-3.59766 68.6881-3.12891 68.8844-2.72656 69.1591-2.39062 69.4339-2.05469 69.7911-1.79687 70.2308-1.61719 70.6704-1.4375 71.2081-1.34766 71.844-1.34766 72.3465-1.34766 72.7939-1.38867 73.1864-1.4707 73.579-1.55273 73.9185-1.64453 74.2051-1.74609 74.4916-1.84766 74.7272-1.93945 74.9117-2.02148 75.0962-2.10352 75.2355-2.14453 75.3298-2.14453 75.3847-2.14453 75.4338-2.13086 75.4769-2.10352 75.5201-2.07617 75.5534-2.03516 75.577-1.98047 75.6005-1.92578 75.6182-1.84961 75.63-1.75195 75.6418-1.6543 75.6477-1.53516 75.6477-1.39453 75.6477-1.29297 75.6438-1.20508 75.6359-1.13086 75.6281-1.05664 75.6184-0.990234 75.6066-0.931641 75.5949-0.873047 75.5754-0.820312 75.548-0.773438 75.5207-0.726562 75.4855-0.681641 75.4426-0.638672 75.3996-0.595703 75.2727-0.525391 75.0617-0.427734 74.8508-0.330078 74.5773-0.234375 74.2414-0.140625 73.9055-0.046875 73.5168 0.0371094 73.0754 0.111328 72.634 0.185547 72.1633 0.222656 71.6633 0.222656 70.7961 0.222656 70.0363 0.101562 69.384-0.140625 68.7316-0.382812 68.1828-0.742188 67.7375-1.21875 67.2922-1.69531 66.9563-2.29297 66.7297-3.01172 66.5031-3.73047 66.3898-4.56641 66.3898-5.51953 66.3898-6.42578 66.507-7.24023 66.7414-7.96289 66.9758-8.68555 67.3137-9.29883 67.7551-9.80273 68.1965-10.3066 68.7297-10.6934 69.3547-10.9629 69.9797-11.2324 70.6789-11.3672 71.4523-11.3672 72.2805-11.3672 72.9855-11.2344 73.5676-10.9688 74.1496-10.7031 74.6281-10.3457 75.0031-9.89648 75.3781-9.44727 75.6535-8.91992 75.8293-8.31445 76.0051-7.70898 76.093-7.0625 76.093-6.375ZM74.1477-6.59766C74.1711-7.61328 73.9451-8.41016 73.4696-8.98828 72.9942-9.56641 72.2887-9.85547 71.3533-9.85547 70.8738-9.85547 70.4533-9.76562 70.0917-9.58594 69.7301-9.40625 69.4275-9.16797 69.1838-8.87109 68.94-8.57422 68.7514-8.22852 68.6178-7.83398 68.4842-7.43945 68.4095-7.02734 68.3938-6.59766ZM85.7141-3.16406C85.7141-2.625 85.6145-2.14453 85.4152-1.72266 85.216-1.30078 84.9328-0.945312 84.5656-0.65625 84.1984-0.367188 83.7609-0.148437 83.2531 0 82.7453 0.148437 82.1867 0.222656 81.5773 0.222656 81.2023 0.222656 80.8449 0.193359 80.5051 0.134766 80.1652 0.0761719 79.8605 0.00195312 79.591-0.0878906 79.3215-0.177734 79.093-0.271484 78.9055-0.369141 78.718-0.466797 78.5813-0.554688 78.4953-0.632812 78.4094-0.710938 78.3469-0.820312 78.3078-0.960938 78.2688-1.10156 78.2492-1.29297 78.2492-1.53516 78.2492-1.68359 78.257-1.80859 78.2727-1.91016 78.2883-2.01172 78.3078-2.09375 78.3313-2.15625 78.3547-2.21875 78.3879-2.26367 78.4309-2.29102 78.4738-2.31836 78.5227-2.33203 78.5773-2.33203 78.6633-2.33203 78.7902-2.2793 78.9582-2.17383 79.1262-2.06836 79.3332-1.95312 79.5793-1.82812 79.8254-1.70312 80.1164-1.58789 80.4523-1.48242 80.7883-1.37695 81.175-1.32422 81.6125-1.32422 81.9406-1.32422 82.2375-1.35938 82.5031-1.42969 82.7688-1.5 82.9992-1.60352 83.1945-1.74023 83.3898-1.87695 83.5402-2.05078 83.6457-2.26172 83.7512-2.47266 83.8039-2.72266 83.8039-3.01172 83.8039-3.30859 83.7277-3.55859 83.5754-3.76172 83.423-3.96484 83.2219-4.14453 82.9719-4.30078 82.7219-4.45703 82.4406-4.5957 82.1281-4.7168 81.8156-4.83789 81.4934-4.96484 81.1613-5.09766 80.8293-5.23047 80.5051-5.38086 80.1887-5.54883 79.8723-5.7168 79.5891-5.92188 79.3391-6.16406 79.0891-6.40625 78.8879-6.69531 78.7355-7.03125 78.5832-7.36719 78.507-7.76953 78.507-8.23828 78.507-8.65234 78.5871-9.04883 78.7473-9.42773 78.9074-9.80664 79.1477-10.1387 79.468-10.4238 79.7883-10.709 80.1887-10.9375 80.6691-11.1094 81.1496-11.2812 81.7102-11.3672 82.3508-11.3672 82.632-11.3672 82.9133-11.3438 83.1945-11.2969 83.4758-11.25 83.7297-11.1914 83.9563-11.1211 84.1828-11.0508 84.3762-10.9746 84.5363-10.8926 84.6965-10.8105 84.8176-10.7383 84.8996-10.6758 84.9816-10.6133 85.0363-10.5586 85.0637-10.5117 85.091-10.4648 85.1105-10.4121 85.1223-10.3535 85.134-10.2949 85.1457-10.2227 85.1574-10.1367 85.1691-10.0508 85.175-9.94531 85.175-9.82031 85.175-9.6875 85.1691-9.57227 85.1574-9.47461 85.1457-9.37695 85.1262-9.29688 85.0988-9.23438 85.0715-9.17188 85.0383-9.12695 84.9992-9.09961 84.9602-9.07227 84.9172-9.05859 84.8703-9.05859 84.8-9.05859 84.6984-9.10156 84.5656-9.1875 84.4328-9.27344 84.2609-9.36523 84.05-9.46289 83.8391-9.56055 83.591-9.65234 83.3059-9.73828 83.0207-9.82422 82.6945-9.86719 82.3273-9.86719 81.9992-9.86719 81.7102-9.83008 81.4602-9.75586 81.2102-9.68164 81.0051-9.57617 80.8449-9.43945 80.6848-9.30273 80.5637-9.14062 80.4816-8.95312 80.3996-8.76562 80.3586-8.5625 80.3586-8.34375 80.3586-8.03906 80.4367-7.7832 80.593-7.57617 80.7492-7.36914 80.9523-7.1875 81.2023-7.03125 81.4523-6.875 81.7375-6.73437 82.0578-6.60938 82.3781-6.48437 82.7043-6.35547 83.0363-6.22266 83.3684-6.08984 83.6965-5.94141 84.0207-5.77734 84.3449-5.61328 84.632-5.41406 84.882-5.17969 85.132-4.94531 85.3332-4.66406 85.4855-4.33594 85.6379-4.00781 85.7141-3.61719 85.7141-3.16406Z" transform="translate(17.5833 32)"/></g></g><text font-family="Calibri,Calibri_MSFontService,sans-serif" font-weight="400" font-size="24" transform="translate(393.887 649)">Agencies</text><path d="M677.5 412.167C677.5 401.305 686.305 392.5 697.167 392.5L775.833 392.5C786.695 392.5 795.5 401.305 795.5 412.167L795.5 490.833C795.5 501.695 786.695 510.5 775.833 510.5L697.167 510.5C686.305 510.5 677.5 501.695 677.5 490.833Z" stroke="#2F528F" stroke-width="1.33333" stroke-miterlimit="8" fill="#4472C4" fill-rule="evenodd"/><text fill="#FFFFFF" font-family="Calibri,Calibri_MSFontService,sans-serif" font-weight="400" font-size="24" transform="translate(695.398 444)">Logistics <tspan font-size="24" x="-0.220032" y="29">Provider</tspan></text><path d="M924.5 328.167C924.5 317.305 933.305 308.5 944.167 308.5L1028.83 308.5C1039.69 308.5 1048.5 317.305 1048.5 328.167L1048.5 406.833C1048.5 417.695 1039.69 426.5 1028.83 426.5L944.167 426.5C933.305 426.5 924.5 417.695 924.5 406.833Z" stroke="#2F528F" stroke-width="1.33333" stroke-miterlimit="8" fill="#4472C4" fill-rule="evenodd"/><text fill="#FFFFFF" font-family="Calibri,Calibri_MSFontService,sans-serif" font-weight="400" font-size="24" transform="translate(951.808 346)">Animal <tspan font-size="24" x="10.4267" y="29">Feed </tspan><tspan font-size="24" x="-10.3066" y="58">Producer</tspan></text><path d="M968.5 119.167C968.5 108.305 977.305 99.5001 988.167 99.5001L1066.83 99.5001C1077.69 99.5001 1086.5 108.305 1086.5 119.167L1086.5 197.833C1086.5 208.695 1077.69 217.5 1066.83 217.5L988.167 217.5C977.305 217.5 968.5 208.695 968.5 197.833Z" stroke="#2F528F" stroke-width="1.33333" stroke-miterlimit="8" fill="#4472C4" fill-rule="evenodd"/><text fill="#FFFFFF" font-family="Calibri,Calibri_MSFontService,sans-serif" font-weight="400" font-size="24" transform="translate(1008.86 152)">Van <tspan font-size="24" x="-12.3733" y="29">Arsdel</tspan></text><path d="M940.5 619C940.5 586.139 992.211 559.5 1056 559.5 1119.79 559.5 1171.5 586.139 1171.5 619 1171.5 651.861 1119.79 678.5 1056 678.5 992.211 678.5 940.5 651.861 940.5 619Z" stroke="#A9D18E" stroke-width="1.33333" stroke-miterlimit="8" fill="#C5E0B4" fill-rule="evenodd"/><g clip-path="url(#clip14)" filter="url(#fx4)" transform="translate(1008 594)"><g clip-path="url(#clip15)"><path d="M18.5039-0.304688C18.5039-0.242187 18.4878-0.1875 18.4557-0.140625 18.4235-0.09375 18.3672-0.0566406 18.2867-0.0292969 18.2061-0.00195313 18.1035 0.0214844 17.9789 0.0410156 17.8542 0.0605469 17.6912 0.0703125 17.4901 0.0703125 17.305 0.0703125 17.1461 0.0605469 17.0133 0.0410156 16.8806 0.0214844 16.776-0.00195313 16.6995-0.0292969 16.623-0.0566406 16.5687-0.09375 16.5365-0.140625 16.5044-0.1875 16.4883-0.242187 16.4883-0.304688L16.4883-13.5117 16.4648-13.5117 11.1211-0.246094C11.0977-0.191406 11.0645-0.144531 11.0215-0.105469 10.9785-0.0664062 10.916-0.0332031 10.834-0.00585938 10.752 0.0214844 10.6543 0.0410156 10.541 0.0527344 10.4277 0.0644531 10.293 0.0703125 10.1367 0.0703125 9.97266 0.0703125 9.83203 0.0625 9.71484 0.046875 9.59766 0.03125 9.5 0.00976562 9.42188-0.0175781 9.34375-0.0449219 9.2832-0.078125 9.24023-0.117188 9.19727-0.15625 9.16797-0.199219 9.15234-0.246094L4.04297-13.5117 4.03125-13.5117 4.03125-0.304688C4.03125-0.242187 4.01517-0.1875 3.983-0.140625 3.95084-0.09375 3.8945-0.0566406 3.814-0.0292969 3.73349-0.00195313 3.62888 0.0214844 3.50015 0.0410156 3.37143 0.0605469 3.20648 0.0703125 3.00531 0.0703125 2.81219 0.0703125 2.65128 0.0605469 2.52255 0.0410156 2.39383 0.0214844 2.29123-0.00195313 2.21475-0.0292969 2.13828-0.0566406 2.08597-0.09375 2.05783-0.140625 2.02969-0.1875 2.01562-0.242187 2.01562-0.304688L2.01562-14.25C2.01562-14.5781 2.10287-14.8125 2.27737-14.9531 2.45187-15.0937 2.64624-15.1641 2.86047-15.1641L4.09808-15.1641C4.35187-15.1641 4.57397-15.1406 4.7644-15.0938 4.95483-15.0469 5.12143-14.9727 5.26419-14.8711 5.40695-14.7695 5.52594-14.6406 5.62115-14.4844 5.71637-14.3281 5.79968-14.1445 5.87109-13.9336L10.207-2.95312 10.2656-2.95312 14.7773-13.8984C14.8646-14.1328 14.9599-14.332 15.0631-14.4961 15.1663-14.6602 15.2794-14.791 15.4025-14.8887 15.5255-14.9863 15.6624-15.0566 15.8132-15.0996 15.9639-15.1426 16.1385-15.1641 16.337-15.1641L17.6347-15.1641C17.7538-15.1641 17.867-15.1465 17.9741-15.1113 18.0812-15.0762 18.1725-15.0215 18.2479-14.9473 18.3234-14.873 18.3849-14.7793 18.4325-14.666 18.4801-14.5527 18.5039-14.4141 18.5039-14.25ZM31.293-6.02344C31.293-5.71875 31.2165-5.50195 31.0634-5.37305 30.9104-5.24414 30.7358-5.17969 30.5395-5.17969L23.5938-5.17969C23.5938-4.59375 23.6526-4.06641 23.7704-3.59766 23.8881-3.12891 24.0844-2.72656 24.3591-2.39062 24.6339-2.05469 24.9911-1.79687 25.4308-1.61719 25.8704-1.4375 26.4081-1.34766 27.044-1.34766 27.5464-1.34766 27.9939-1.38867 28.3864-1.4707 28.779-1.55273 29.1185-1.64453 29.4051-1.74609 29.6916-1.84766 29.9272-1.93945 30.1117-2.02148 30.2962-2.10352 30.4355-2.14453 30.5298-2.14453 30.5847-2.14453 30.6338-2.13086 30.6769-2.10352 30.7201-2.07617 30.7534-2.03516 30.777-1.98047 30.8005-1.92578 30.8182-1.84961 30.83-1.75195 30.8418-1.6543 30.8477-1.53516 30.8477-1.39453 30.8477-1.29297 30.8438-1.20508 30.8359-1.13086 30.8281-1.05664 30.8184-0.990234 30.8066-0.931641 30.7949-0.873047 30.7754-0.820312 30.748-0.773438 30.7207-0.726562 30.6855-0.681641 30.6426-0.638672 30.5996-0.595703 30.4727-0.525391 30.2617-0.427734 30.0508-0.330078 29.7773-0.234375 29.4414-0.140625 29.1055-0.046875 28.7168 0.0371094 28.2754 0.111328 27.834 0.185547 27.3633 0.222656 26.8633 0.222656 25.9961 0.222656 25.2363 0.101562 24.584-0.140625 23.9316-0.382812 23.3828-0.742188 22.9375-1.21875 22.4922-1.69531 22.1562-2.29297 21.9297-3.01172 21.7031-3.73047 21.5898-4.56641 21.5898-5.51953 21.5898-6.42578 21.707-7.24023 21.9414-7.96289 22.1758-8.68555 22.5137-9.29883 22.9551-9.80273 23.3965-10.3066 23.9297-10.6934 24.5547-10.9629 25.1797-11.2324 25.8789-11.3672 26.6523-11.3672 27.4805-11.3672 28.1855-11.2344 28.7676-10.9688 29.3496-10.7031 29.8281-10.3457 30.2031-9.89648 30.5781-9.44727 30.8535-8.91992 31.0293-8.31445 31.2051-7.70898 31.293-7.0625 31.293-6.375ZM29.3477-6.59766C29.3711-7.61328 29.1451-8.41016 28.6696-8.98828 28.1942-9.56641 27.4887-9.85547 26.5533-9.85547 26.0738-9.85547 25.6533-9.76562 25.2917-9.58594 24.9301-9.40625 24.6275-9.16797 24.3838-8.87109 24.14-8.57422 23.9514-8.22852 23.8178-7.83398 23.6842-7.43945 23.6095-7.02734 23.5938-6.59766ZM43.3281-0.292969C43.3281-0.230469 43.3145-0.175781 43.2871-0.128906 43.2598-0.0820312 43.2129-0.0449219 43.1465-0.0175781 43.0801 0.00976562 42.9922 0.03125 42.8828 0.046875 42.7734 0.0625 42.6406 0.0703125 42.4844 0.0703125 42.3203 0.0703125 42.1836 0.0625 42.0742 0.046875 41.9648 0.03125 41.875 0.00976562 41.8047-0.0175781 41.7344-0.0449219 41.6836-0.0820312 41.6523-0.128906 41.6211-0.175781 41.6055-0.230469 41.6055-0.292969L41.6055-1.6875C41.0508-1.08594 40.4746-0.617187 39.877-0.28125 39.2793 0.0546875 38.625 0.222656 37.9141 0.222656 37.1406 0.222656 36.4805 0.0722656 35.9336-0.228516 35.3867-0.529297 34.9434-0.935547 34.6035-1.44727 34.2637-1.95898 34.0156-2.56055 33.8594-3.25195 33.7031-3.94336 33.625-4.67188 33.625-5.4375 33.625-6.34375 33.7227-7.16211 33.918-7.89258 34.1133-8.62305 34.4023-9.24609 34.7852-9.76172 35.168-10.2773 35.6426-10.6738 36.209-10.9512 36.7754-11.2285 37.4297-11.3672 38.1719-11.3672 38.7891-11.3672 39.3535-11.2324 39.8652-10.9629 40.377-10.6934 40.8828-10.2969 41.3828-9.77344L41.3828-15.9023C41.3828-15.957 41.3965-16.0098 41.4238-16.0605 41.4512-16.1113 41.5039-16.1504 41.582-16.1777 41.6602-16.2051 41.7598-16.2285 41.8809-16.248 42.002-16.2676 42.1562-16.2773 42.3438-16.2773 42.5391-16.2773 42.6992-16.2676 42.8242-16.248 42.9492-16.2285 43.0469-16.2051 43.1172-16.1777 43.1875-16.1504 43.2402-16.1113 43.2754-16.0605 43.3105-16.0098 43.3281-15.957 43.3281-15.9023ZM41.3828-7.71094C40.8594-8.35938 40.3535-8.85352 39.8652-9.19336 39.377-9.5332 38.8672-9.70312 38.3359-9.70312 37.8438-9.70312 37.4258-9.58594 37.082-9.35156 36.7383-9.11719 36.459-8.80859 36.2441-8.42578 36.0293-8.04297 35.873-7.60937 35.7754-7.125 35.6777-6.64062 35.6289-6.14844 35.6289-5.64844 35.6289-5.11719 35.6699-4.59766 35.752-4.08984 35.834-3.58203 35.9766-3.13086 36.1797-2.73633 36.3828-2.3418 36.6523-2.02539 36.9883-1.78711 37.3242-1.54883 37.7461-1.42969 38.2539-1.42969 38.5117-1.42969 38.7598-1.46484 38.998-1.53516 39.2363-1.60547 39.4805-1.72266 39.7305-1.88672 39.9805-2.05078 40.2422-2.26367 40.5156-2.52539 40.7891-2.78711 41.0781-3.10938 41.3828-3.49219ZM48.8932-0.292969C48.8932-0.230469 48.8776-0.177734 48.8464-0.134766 48.8151-0.0917969 48.7643-0.0546875 48.694-0.0234375 48.6237 0.0078125 48.526 0.03125 48.401 0.046875 48.276 0.0625 48.1159 0.0703125 47.9206 0.0703125 47.7331 0.0703125 47.5768 0.0625 47.4518 0.046875 47.3268 0.03125 47.2272 0.0078125 47.153-0.0234375 47.0788-0.0546875 47.028-0.0917969 47.0007-0.134766 46.9733-0.177734 46.9596-0.230469 46.9596-0.292969L46.9596-10.8398C46.9596-10.8945 46.9733-10.9453 47.0007-10.9922 47.028-11.0391 47.0788-11.0781 47.153-11.1094 47.2272-11.1406 47.3268-11.1641 47.4518-11.1797 47.5768-11.1953 47.7331-11.2031 47.9206-11.2031 48.1159-11.2031 48.276-11.1953 48.401-11.1797 48.526-11.1641 48.6237-11.1406 48.694-11.1094 48.7643-11.0781 48.8151-11.0391 48.8464-10.9922 48.8776-10.9453 48.8932-10.8945 48.8932-10.8398ZM49.1159-14.4023C49.1159-13.9492 49.0299-13.6406 48.8581-13.4766 48.6862-13.3125 48.3698-13.2305 47.9089-13.2305 47.4557-13.2305 47.1452-13.3105 46.9772-13.4707 46.8092-13.6309 46.7253-13.9336 46.7253-14.3789 46.7253-14.832 46.8112-15.1406 46.9831-15.3047 47.1549-15.4687 47.4714-15.5508 47.9323-15.5508 48.3854-15.5508 48.696-15.4707 48.8639-15.3105 49.0319-15.1504 49.1159-14.8477 49.1159-14.4023ZM60.4049-0.28125C60.4049-0.1875 60.3737-0.117187 60.3112-0.0703125 60.2487-0.0234375 60.1628 0.0117188 60.0534 0.0351562 59.944 0.0585937 59.7839 0.0703125 59.5729 0.0703125 59.3698 0.0703125 59.2077 0.0585937 59.0866 0.0351562 58.9655 0.0117188 58.8776-0.0234375 58.8229-0.0703125 58.7682-0.117187 58.7409-0.1875 58.7409-0.28125L58.7409-1.33594C58.2799-0.84375 57.7663-0.460937 57.1999-0.1875 56.6335 0.0859375 56.0339 0.222656 55.401 0.222656 54.8464 0.222656 54.3444 0.150391 53.8952 0.00585938 53.446-0.138672 53.0631-0.347656 52.7467-0.621094 52.4303-0.894531 52.1842-1.23047 52.0085-1.62891 51.8327-2.02734 51.7448-2.48047 51.7448-2.98828 51.7448-3.58203 51.8659-4.09766 52.1081-4.53516 52.3503-4.97266 52.6979-5.33594 53.151-5.625 53.6042-5.91406 54.1589-6.13086 54.8151-6.27539 55.4714-6.41992 56.2096-6.49219 57.0299-6.49219L58.4831-6.49219 58.4831-7.3125C58.4831-7.71875 58.4401-8.07812 58.3542-8.39062 58.2682-8.70312 58.1296-8.96289 57.9382-9.16992 57.7467-9.37695 57.4987-9.5332 57.194-9.63867 56.8893-9.74414 56.5143-9.79688 56.069-9.79688 55.5924-9.79688 55.1647-9.74023 54.7858-9.62695 54.4069-9.51367 54.0749-9.38867 53.7897-9.25195 53.5046-9.11523 53.2663-8.99023 53.0749-8.87695 52.8835-8.76367 52.7409-8.70703 52.6471-8.70703 52.5846-8.70703 52.5299-8.72266 52.4831-8.75391 52.4362-8.78516 52.3952-8.83203 52.36-8.89453 52.3249-8.95703 52.2995-9.03711 52.2839-9.13477 52.2682-9.23242 52.2604-9.33984 52.2604-9.45703 52.2604-9.65234 52.2741-9.80664 52.3014-9.91992 52.3288-10.0332 52.3952-10.1406 52.5007-10.2422 52.6061-10.3438 52.7878-10.4629 53.0456-10.5996 53.3034-10.7363 53.6003-10.8613 53.9362-10.9746 54.2721-11.0879 54.6393-11.1816 55.0378-11.2559 55.4362-11.3301 55.8385-11.3672 56.2448-11.3672 57.0026-11.3672 57.6471-11.2812 58.1784-11.1094 58.7096-10.9375 59.1393-10.6855 59.4674-10.3535 59.7956-10.0215 60.0339-9.60938 60.1823-9.11719 60.3307-8.625 60.4049-8.05078 60.4049-7.39453ZM58.4831-5.09766 56.8307-5.09766C56.2995-5.09766 55.8385-5.05273 55.4479-4.96289 55.0573-4.87305 54.7331-4.74023 54.4753-4.56445 54.2174-4.38867 54.028-4.17773 53.9069-3.93164 53.7858-3.68555 53.7253-3.40234 53.7253-3.08203 53.7253-2.53516 53.8991-2.09961 54.2467-1.77539 54.5944-1.45117 55.0807-1.28906 55.7057-1.28906 56.2135-1.28906 56.6842-1.41797 57.1178-1.67578 57.5514-1.93359 58.0065-2.32812 58.4831-2.85938Z" transform="translate(17.5107 33)"/></g></g><text font-family="Calibri,Calibri_MSFontService,sans-serif" font-weight="400" font-size="24" transform="translate(1024.81 626)">Media</text><path d="M445.244 242.03 650.291 293.73 649.802 295.669 444.756 243.97ZM649.732 290.495 656.511 296.329 647.776 298.252Z" fill="#4472C4"/><path d="M0.999913-0.0132239 1.64435 48.7155-0.355473 48.742-0.999913 0.0132239ZM4.62646 47.3427 0.732598 55.3949-3.37284 47.4484Z" fill="#4472C4" transform="matrix(-1 0 0 1 736.733 200)"/><path d="M735.733 392.408 735.088 343.679 737.088 343.653 737.733 392.382ZM732.106 345.052 736 337 740.105 344.946Z" fill="#4472C4"/><path d="M923.763 367.918 820.044 300.473 821.134 298.796 924.854 366.241ZM819.526 303.715 815 296 823.887 297.008Z" fill="#4472C4"/><path d="M0.668152-0.744025 149.287 132.719 147.95 134.207-0.668152 0.744025ZM150.299 129.596 153.579 137.918 144.954 135.549Z" fill="#4472C4" transform="matrix(-1 0 0 1 968.579 158)"/><path d="M0.394087-0.919073 419.527 178.8 418.739 180.638-0.394087 0.919073ZM419.486 175.518 425.263 182.347 416.334 182.871Z" fill="#A9D18E" transform="matrix(-1 0 0 1 656.263 296)"/><path d="M0.612836-0.79021 293.67 226.486 292.444 228.067-0.612836 0.79021ZM294.455 223.299 298.325 231.362 289.552 229.62Z" fill="#A9D18E" transform="matrix(-1 0 0 1 735.325 337)"/><path d="M736.57 336.179 1051.46 554.897 1050.32 556.539 735.43 337.821ZM1052.08 551.672 1056.37 559.521 1047.51 558.242Z" fill="#A9D18E"/><text fill="#4472C4" font-family="Calibri,Calibri_MSFontService,sans-serif" font-weight="400" font-size="24" transform="translate(336.732 117)">Cibus<tspan font-size="24" x="58.5" y="0">Dataspace</tspan></text></g></svg>